<?xml version="1.0"?>
<svg xmlns="http://www.w3.org/2000/svg" id="Layer_1" width="14.7cm" height="5.2cm" viewBox="0 0 415.6 148">
  <defs>
    <style>
      .cls-1 {
        fill: #461bff;
      }
    </style>
  </defs>
  <title>amil-saude</title>
  <path class="cls-1" d="M62.2,159.1a31.9,31.9,0,0,1-32-32.3c0-17.8,13.7-32.3,32-32.3s31.8,14.5,31.8,32.3-13.5,32.3-31.8,32.3m271.3,19.2h22a1.9,1.9,0,0,0,2-2V77.5a1.9,1.9,0,0,0-2-2h-22a1.9,1.9,0,0,0-2,2v98.8a1.9,1.9,0,0,0,2,2M59.8,181.8c16.7,0,29.2-7.6,38.4-17.1,7.6,8.2,16.9,13.7,31.2,13.7H132a1.9,1.9,0,0,0,2-2V160.5a2.5,2.5,0,0,0-1.6-2.4c-11.4-4.5-15.1-11.4-15.1-28.4V77.5a1.9,1.9,0,0,0-2-2H93.4a1.9,1.9,0,0,0-2,2v7.1A45.2,45.2,0,0,0,59.6,71.9c-28.4,0-53.9,23.9-53.9,55.3,0,33.7,25.3,54.5,54.1,54.5m93.7-3.5h22a1.9,1.9,0,0,0,2-2V123.4c0-9.6-1.6-18-4.5-24.7,9.4-3.7,18.2-5.7,23.7-5.7,13.7,0,20.2,8.4,20.2,26.1v57.2a1.9,1.9,0,0,0,2,2h22a1.9,1.9,0,0,0,2-2V118.7a61.9,61.9,0,0,0-3.7-21.4c8.6-2.9,17.1-4.3,22.9-4.3,13.7,0,20.2,8.4,20.2,26.1v57.2a1.9,1.9,0,0,0,2,2h22a1.9,1.9,0,0,0,2-2V118.7c0-28.2-12.9-47.2-40.8-46.7-13.1.2-25.5,3.3-38.8,9.6-7.1-6.3-16.7-9.6-28.6-9.6S175.5,76.6,161,83c-5.1-3.9-14.5-7.1-21-7.1h-3.3a1.9,1.9,0,0,0-2,2V94.6a2.7,2.7,0,0,0,1.6,2.4c11.4,4.5,15.1,11.4,15.1,28.4v50.8a1.9,1.9,0,0,0,2,2m262.9.6h2.9a1.9,1.9,0,0,0,2-2V160.5a2.5,2.5,0,0,0-1.6-2.4c-11.4-4.5-15.1-11.4-15.1-28.4V39.3a1.9,1.9,0,0,0-2-2h-22a1.9,1.9,0,0,0-2,2v92.1c0,28.4,14.9,47.6,38,47.6M344.5,63.6a14.9,14.9,0,0,1-15.3-14.9c0-8.4,6.5-14.9,15.3-14.9s15.3,6.5,15.3,14.9a14.9,14.9,0,0,1-15.3,14.9" transform="translate(-5.7 -33.8)"/>
</svg>
