<?xml version="1.0" encoding="UTF-8"?>
<svg xmlns="http://www.w3.org/2000/svg" version="1.1" viewBox="0 0 200 120">
  <defs>
    <style>
      .cls-1 {
        fill: #cf2032;
      }
    </style>
  </defs>
  <!-- Generator: Adobe Illustrator 28.7.1, SVG Export Plug-In . SVG Version: 1.2.0 Build 142)  -->
  <g>
    <g id="Camada_1">
      <path class="cls-1" d="M70.2,81.7c-1.2,0-2.6.2-3.6.5,0,.3,0,.6,0,.9s0,.7,0,.9c1.2-.3,2.3-.5,3.5-.5,2.2,0,3.5,1,3.5,3.3v.5c-.8-.1-1.4-.2-2.5-.2-3.5,0-5.6,1.5-5.6,4.1s2.3,4.3,5.4,4.3,3.3-.3,4.8-.7v-7.8c0-3.9-2.2-5.5-5.5-5.5M73.6,93.6c-.6.1-1.7.3-2.6.3-2.2,0-3.3-.9-3.3-2.6s1.2-2.4,3.6-2.4,1.7,0,2.3.1v4.6h0ZM81.8,68.5v-9.5c0-3.8,2-5.8,4.7-5.8s1.3,0,1.8,0c.3-1.2.3-3.1,0-4.3-.3,0-1.1-.2-1.5-.2-2.5,0-4,1-5.4,2.8-.1-.9-.3-1.6-.6-2.5-.5-.2-1.4-.2-2.2-.2s-1.7,0-2.2.2v19.6c.6.2,1.7.2,2.7.2s2.1,0,2.7-.2M19.2,58.3v10c0,.3.2.4.5.4h2.7v-12.7l-2.7,1.5c-.3.2-.5.4-.5.8M27.4,53.1l-3.9,2.2v13.4h4.2c.4,0,.7-.3.7-.7v-14.4c0-.5-.5-.8-1-.5M60.5,87.8l-1.3-.6c-1.3-.6-2.1-1-2.1-2s1.2-1.7,2.6-1.7,2.2.2,3.2.6c0-.3,0-.6,0-.9s0-.6,0-.8c-.8-.4-2.2-.7-3.5-.7-2.5,0-4.6,1.4-4.6,3.5s.7,2.8,3.2,3.9l1,.4c1.6.7,2.2,1.3,2.2,2.4s-1.4,2-2.7,2-2.7-.3-3.9-.8c0,.3-.1.6-.1.9s0,.6.1.9c1.1.5,2.4.8,4.2.8,2.6,0,4.7-1.5,4.7-3.8,0-1.9-1-3-3.1-4M22,33.8c-2.7,0-5.7.2-8.6.7,3-3.8,7.7-6.3,12.9-6.3s7.7,1.5,10.3,3.6c.5.4.8.4,1.2,0,.4-.4.3-.7,0-1.2-3.4-3.9-8.4-6.6-14.3-6.5-7.7.1-14.2,5-16.7,11.8-2.3.7-4.4,1.6-6.2,2.6-.5.3-.7.6-.5,1.1.2.4.5.5,1.1.4,1.6-.5,3.2-.9,4.9-1.2-.2.9-.3,1.8-.3,2.8-.1,6.2,3.2,12.1,8.3,15.4.5.3.9.3,1.2,0,.3-.4.3-.7-.2-1.1-3.3-2.9-5.1-7.3-5.1-11.6s.4-4.3,1.3-6.1c1.7-.1,3.5-.3,5.6-.3,13.2,0,24.3,4.3,24.3,10s-3.7,5.8-8,7.7c-1,.5-1.2.8-1,1.2.1.4.6.6,1.2.4,7.6-2.5,13.3-6.6,13.3-11.5,0-6.7-10.8-11.9-24.6-11.9M73.2,58.5c0-6.1-2.8-9.9-8.7-9.9s-3.1.3-4,.8v-9.6c-1.5.6-3.1,1.3-4.4,2.4-.7.6-.9,1.1-.9,1.9v23.6c1.4.6,4.3,1.1,7.1,1.1,7,0,11-4.3,11-10.4M60.5,53.6c.7-.4,1.8-.6,3.1-.6,2.7,0,4.1,1.9,4.1,5.3s-1.7,6.2-5.2,6.2-1.4,0-2-.2v-10.7h0ZM112.9,81.7c-3.6,0-5.9,2.8-5.9,7s2.4,6.9,6.5,6.9,3-.3,4-.7c0-.3,0-.6,0-.9s0-.6,0-.9c-1.2.4-2.4.7-3.8.7-2.8,0-4.3-1.8-4.4-4.7h9c0-.3,0-1.1,0-1.5,0-3.7-2.2-6-5.3-6M109.2,87.4c.2-2.5,1.7-4,3.7-4s3.2,1.7,3.2,4h-6.8ZM138.4,48.5c-5.8,0-9.3,3.9-9.3,10.4s3.8,10.1,10.2,10.1,4.6-.4,6.1-1.1c.3-1.3.3-2.9,0-4.1-2,.6-3.7.9-5.5.9-3,0-5.1-1.1-5.5-4.3h12.2c.2-.5.2-2.1.2-2.7,0-5.8-3.3-9.1-8.3-9.1M134.3,56.4c.4-2.4,1.8-3.8,4-3.8s3.4,1.6,3.5,3.8h-7.4ZM159,56.9l-2.2-.9c-1.2-.5-2-1-2-1.8,0-1.3,1.1-1.5,2.6-1.5s3,.2,5.1.8c.3-1.4.3-2.8,0-4-1.3-.7-3.7-1-5.8-1-4.1,0-7.3,2.2-7.3,5.6s1.3,4.5,4.9,6l1.7.7c1.6.6,2.1,1,2.1,2.1,0,1.6-1.6,1.8-2.8,1.8-2.2,0-3.8-.4-5.9-1.2-.3,1.3-.3,2.9,0,4.2,1.8.9,4.2,1.2,6.7,1.2,4.1,0,7.4-2.2,7.4-6,0-3.2-1.4-4.7-4.4-6M175.6,64.5c-2.7,0-4.4-2.1-4.4-5.8s1.4-5.8,4.5-5.8,2.2.2,3.4.7c.3-1.2,1-2.6,1.9-3.7-1.7-.9-3.3-1.3-6-1.3-5.9,0-9.3,4.2-9.3,10.2s3.5,10.2,9.5,10.2,4.2-.4,5.9-1.3c-.7-1-1.6-2.2-2-3.8-1.5.6-2.2.6-3.4.6M190.6,48.5c-6,0-9.4,4.1-9.4,10.3s3.5,10.2,9.4,10.2,9.4-4,9.4-10.2c0-6.2-3.4-10.3-9.4-10.3M190.6,64.6c-3,0-3.9-2.4-3.9-5.9s.9-6,3.9-6,3.9,2.5,3.9,6-1,5.9-3.9,5.9M96.7,48.5c-2.1,0-4,.2-5.8.6-.3,1.2-.3,3,0,4.2,2.2-.5,3.5-.6,4.9-.6,2.8,0,4.1,1.1,4.1,3.4v.2c-.8,0-1.8-.2-2.5-.2-4.6,0-8.5,1.6-8.5,6s3.5,6.6,8.7,6.6,5-.4,7.5-1.2v-11.2c0-5.4-2.9-8-8.4-8.1M100,64.5c-.3,0-1.6.2-2.3.2-2.5,0-3.8-.7-3.8-2.5s1.3-2.4,3.8-2.4,1.8,0,2.3.1v4.5ZM102,77.6v4.4c-.8-.2-1.6-.3-2.5-.3-4,0-6.7,2.8-6.7,7.2s2.6,6.8,6.5,6.8,3.7-.4,4.9-.8v-19.3c-.6.3-1.4.6-1.9,1.1-.3.2-.4.5-.4,1M102,93.4c-.9.2-1.8.4-2.5.4-2.8,0-4.3-1.8-4.3-4.9s1.8-5.3,4.5-5.3,1.7.1,2.4.3v9.6ZM87.8,81.9v11.6c-.8.2-1.7.3-2.8.3-2.6,0-3.9-1.4-3.9-4.4v-7.5c-.3,0-.7-.1-1.1-.1s-.9,0-1.2.1v7.6c0,4.1,2.2,6.2,6.1,6.2s3.7-.3,5.3-.8v-13c-.3,0-.7-.1-1.1-.1-.4,0-.9,0-1.2.1M120.7,44.2v4.7c-.9-.3-1.9-.3-2.8-.3-5.9,0-9.9,4-9.9,10.3s3.9,10.1,10.1,10.1,5.6-.4,8-1.2v-27.9c-1.5.6-3.1,1.3-4.4,2.4-.7.6-.9,1.1-.9,1.9M120.7,64.3c-.9.3-1.6.3-2.3.3-3.5,0-4.9-2.3-4.9-5.7s1.4-6,4.9-6,1.7.1,2.3.3v11.1h0ZM85.9,76.4l-3.2,3.4c.3,0,.7,0,1,0s.7,0,1,0l3.6-3.4c-.4,0-.8-.1-1.3-.1s-.8,0-1.2.1"/>
    </g>
  </g>
</svg>