<?xml version="1.0" encoding="UTF-8"?>
<svg id="Layer_1" data-name="Layer 1" xmlns="http://www.w3.org/2000/svg" viewBox="0 0 200 120">
  <defs>
    <style>
      .cls-1 {
        fill: #e63749;
      }

      .cls-1, .cls-2, .cls-3, .cls-4 {
        fill-rule: evenodd;
      }

      .cls-2 {
        fill: #fff;
      }

      .cls-3 {
        fill: #33414c;
      }

      .cls-4 {
        fill: #ff4a5f;
      }
    </style>
  </defs>
  <path class="cls-4" d="M69.42.1c16.98-1.73,32.6,19.95,52.28,18.1,18.65-1.4,52.21-5.11,51.8,16.51-.82,16.22-16.38,24.28-29.61,29.97-6.99,3.01-13.81,6.39-20.41,10.17-8.73,5.01-17.7,10.91-25.99,19.66-2.62,2.76-4.96,5.77-7.04,8.96-11.15,17.07-30.38,24.68-40.8,4.25-3.27-6.36-2.69-13.43-.87-20.36,5.15-19.64,6.1-40.15,2.54-60.13-.03-.17-.06-.34-.09-.51C48.84,14.81,56.7,1.11,69.42.1Z"/>
  <path class="cls-3" d="M33.15,39.11c3-3.98,6.84-7.26,11.2-9.67,22.21-12.24,48.15-17.51,72.63-8.08,18.35,8.03,34.22,24.06,37.62,44.82.7,4.25-.46,8.62-3.26,11.9-5.79,6.78-15.06,5.1-25.52,3.26-12.56-1.66-15.02-1.35-26.41,4.04-5.53,2.55-12.73,6.71-19.12,9.98-10.81,5.54-23.77,4.92-33.96-1.7-17.9-11.61-26.89-36.35-13.19-54.56Z"/>
  <path class="cls-2" d="M81.2,50.7c-.48-8.66,8.69-13.17,13.94-7.68l-1.35,1.61c-4.18-4.29-10.4-.64-10.04,6.01-.39,7.1,6.23,10.5,10.5,5.75l1.35,1.55c-5.32,6.04-14.84,1.84-14.4-7.24Z"/>
  <path class="cls-2" d="M106.91,56.88v-3.99c-10.75.54-6.17,9.78,0,3.99h0ZM98.09,56.65c0-3.13,2.7-4.69,8.82-5.36.22-4.69-4.57-4.12-7.25-2.09l-.95-1.67c1.32-.87,3.34-1.88,5.64-1.88,7.15-.36,4.51,10.39,4.99,14.72h-2.01l-.21-1.72h-.08c-2.74,2.86-8.94,3.06-8.96-2.01Z"/>
  <path class="cls-2" d="M113.88,46.01h2.01l.2,2.62h.08c1-1.82,2.47-2.97,4.08-2.97.64,0,1.08.08,1.53.29l-.45,2.13c-.49-.16-.82-.24-1.39-.24-1.21,0-2.66.87-3.63,3.3v9.23h-2.43v-14.37Z"/>
  <path class="cls-2" d="M132.81,52.04c.29-6.09-7.26-5.71-7.66,0h7.66ZM122.77,53.22c.09-10.51,13.95-9.62,12.08.57h-9.68c.05,4.74,5.05,6.31,8.35,3.87l.87,1.6c-4.59,3.32-11.85.92-11.62-6.03Z"/>
  <path class="cls-4" d="M104.4,70.82l.34-.45c.47.53,1.98.78,2-.15-.16-.99-2.2-.71-2.14-1.95-.09-1.23,1.92-1.46,2.67-.7l-.33.44c-.44-.46-1.69-.54-1.68.22.2.95,2.23.63,2.14,1.94.05,1.39-2.16,1.5-3,.64Z"/>
  <path class="cls-4" d="M113.11,70.29v-1.13c-3.04.15-1.75,2.77,0,1.13h0ZM110.62,70.23c0-.89.76-1.33,2.5-1.52.11-1.29-1.34-1.18-2.05-.59l-.27-.47c1.12-.83,3.12-.82,3.01,1.14v2.5h-.57l-.06-.49h-.02c-.77.81-2.53.87-2.54-.57Z"/>
  <path class="cls-4" d="M118.72,66.15l1.18-1.39.48.46-1.32,1.28-.35-.34h0ZM117.54,69.8v-2.58h.69v2.49c-.06,1.41,1.19,1.35,1.86.4v-2.88h.69v4.07h-.57l-.06-.64h-.02c-.87,1.19-2.72.95-2.58-.85Z"/>
  <path class="cls-4" d="M127.24,70.25v-2.13c-2.91-2.17-2.8,4.68,0,2.13h0ZM124.37,69.26c-.02-1.85,1.7-2.76,2.9-1.67-.04-.45-.03-1.79-.03-2.26h.69v5.96h-.57l-.06-.48h-.02c-1.18,1.22-3.01.42-2.91-1.55Z"/>
  <path class="cls-4" d="M134.35,68.92c.08-1.72-2.05-1.62-2.17,0h2.17ZM131.51,69.26c.03-2.97,3.95-2.72,3.42.16h-2.74c.02,1.34,1.43,1.79,2.36,1.1l.25.45c-1.3.94-3.35.26-3.29-1.71Z"/>
  <path class="cls-4" d="M52.36,59.38c-.77,0-1.54-.08-2.31-.24-2.48-.51-4.68-1.81-6.21-3.66-1.72-2.07-2.5-4.69-2.26-7.58.23-3.89,2.77-7.28,6.62-8.85,3.85-1.57,8.04-.91,10.93,1.72l-1.76,1.93c-2.14-1.95-5.27-2.42-8.19-1.24-2.91,1.19-4.83,3.71-5,6.6v.03c-.41,4.87,2.92,7.77,6.4,8.49,3.48.72,7.68-.63,9.23-5.26l2.47.83c-.92,2.76-2.68,4.86-5.08,6.09-1.47.75-3.14,1.14-4.84,1.14Z"/>
  <path class="cls-1" d="M63.22,52.42h-5.65c-.72,0-1.3-.58-1.3-1.3s.58-1.3,1.3-1.3h5.65c.72,0,1.3.58,1.3,1.3s-.58,1.3-1.3,1.3Z"/>
  <path class="cls-1" d="M56.91,44.29c-.33,0-.67-.13-.92-.38-.51-.51-.51-1.34,0-1.84l2.45-2.45c.51-.51,1.34-.51,1.84,0,.51.51.51,1.34,0,1.84l-2.45,2.45c-.25.25-.59.38-.92.38Z"/>
  <path class="cls-4" d="M48.68,71.34c-1.12,0-2.15-.46-2.9-1.31-.82-.93-1.2-2.2-1.03-3.48.09-.71.75-1.22,1.46-1.12.71.09,1.22.75,1.12,1.46-.07.52.08,1.05.4,1.41.25.28.57.43.96.43h7.78c1.32-.03,1.79-1,1.79-1.83s-.47-1.8-1.79-1.83h-6.91c-1.64,0-3.05-.94-3.67-2.45-.63-1.51-.3-3.17.86-4.33l1.22-1.22c.51-.51,1.33-.51,1.84,0,.51.51.51,1.34,0,1.84l-1.22,1.22c-.6.6-.38,1.29-.3,1.49.08.2.42.84,1.26.84h6.94c2.87.05,4.37,2.27,4.37,4.44s-1.5,4.39-4.37,4.43h-.02s-7.77,0-7.77,0h-.04Z"/>
  <path class="cls-4" d="M67.71,52.32c.06,3.08,2.32,4.46,4.54,4.46s4.48-1.38,4.54-4.46c-.06-3.08-2.32-4.46-4.54-4.46s-4.48,1.38-4.54,4.46h0ZM72.25,59.39h0c-3.49,0-7.07-2.42-7.15-7.04v-.04c.08-4.62,3.66-7.04,7.15-7.04h0c3.49,0,7.07,2.42,7.15,7.04v.02s0,.02,0,.02c-.08,4.62-3.65,7.04-7.15,7.04Z"/>
</svg>