<?xml version="1.0" encoding="UTF-8"?>
<svg id="svg2" xmlns="http://www.w3.org/2000/svg" version="1.1" xmlns:cc="http://creativecommons.org/ns#" xmlns:dc="http://purl.org/dc/elements/1.1/" xmlns:rdf="http://www.w3.org/1999/02/22-rdf-syntax-ns#" xmlns:svg="http://www.w3.org/2000/svg" xmlns:xlink="http://www.w3.org/1999/xlink" viewBox="0 0 2387.6 652.6">
  <!-- Generator: Adobe Illustrator 29.3.1, SVG Export Plug-In . SVG Version: 2.1.0 Build 151)  -->
  <defs>
    <style>
      .st0 {
        fill: #fc0;
      }

      .st1 {
        fill: #ff4f07;
      }

      .st2 {
        fill: #ffbfa5;
      }

      .st3 {
        fill: #ffafb3;
      }

      .st4 {
        fill: #ffbbbe;
      }

      .st5 {
        fill: #ff4f06;
      }

      .st6 {
        fill: #f80;
      }

      .st7 {
        fill: #1539aa;
      }

      .st8 {
        fill: #ff4e06;
      }

      .st9 {
        fill: #ff4e05;
      }

      .st10 {
        fill: #ff222b;
      }
    </style>
  </defs>
  <g id="g10">
    <g id="g12">
      <g>
        <path class="st10" d="M274,0c2.2.5,4.2,1.2,6,2,80.3,16.6,63.8,141.5,39.7,196.7-5.4,12.3-45.7,85-56.4,83.2-12.3-2.1-51-73.1-57-87.2-23.6-55.7-37-175.2,41.7-192.7,1.3-.8,3.3-1.4,6-2h20Z"/>
        <path class="st9" d="M4,188c13.9-42.8,56.4-51.5,95.9-38.9,67.4,21.4,114.7,91.6,136.1,155.8-.7,7.9-80,7.8-89.1,7.2-51.5-3.4-125.3-33-142.9-86.1l-4-10v-18l4-10h0Z"/>
        <path class="st3" d="M254,0c-1.1,2.8-4,1.6-6,2V0h6Z"/>
        <path class="st4" d="M280,0v2c-2-.4-4.9.8-6-2h6Z"/>
        <g>
          <g>
            <g>
              <g>
                <path class="st9" d="M291.9,306c19.4-65.5,74.1-142.6,144-159,84-19.7,121.7,66.2,59,121-53.1,46.3-136.8,52.1-202.9,38h-.1Z"/>
                <g>
                  <path class="st2" d="M4,226l-4-4v-6c4.4,2.2,3,6.9,4,10Z"/>
                  <path class="st2" d="M0,198v-6l4-4c-1,3.1.3,7.8-4,10Z"/>
                </g>
              </g>
              <path class="st0" d="M263.2,352.2c3.8-.7,11.8,11.8,14.3,15.2,25,33.4,42,81.8,29.8,123.1-13.5,45.7-70.6,48.1-86,3.1-13.9-40.7,2-87.8,25.3-121.8,2.5-3.7,13.4-19,16.5-19.6h.1Z"/>
              <path class="st6" d="M236,336.1c-14,50-64.9,115.8-122.8,107.8-25.8-3.6-40-32-32.2-55.8,17.4-52.6,109-64.9,155-52h0Z"/>
              <path class="st6" d="M291.9,336.1c44.9-9.8,105.6-5,140.1,28.9,26.1,25.7,21,74.5-19.1,79.1-57.5,6.6-107.2-58.4-121-108Z"/>
            </g>
            <g>
              <path class="st7" d="M795.9,228l22-148c26.7-2.4,53.3-2.5,80,0l-54,366c-37.2,0-76.9,7.9-73.9-43,2-34.5,13.6-72.1,16-107h-113l-23.9,148.1c-25.8,6.8-52.9,3.6-79.1,1.9,16.1-122.1,36.5-244,54.1-366,34.6-.8,76.4-6.3,73.9,40.9-1.8,34.2-14,72.3-16,107h114,0Z"/>
              <path class="st7" d="M1825.7,174l-40.1,271.9c-26.4,4.3-53.3,5.9-79.7,0l39.9-271.7c26.4-3,53.5-3.3,79.9-.1h0Z"/>
              <path class="st7" d="M1831,66.7c22.9,23.6,6.7,65.4-22.2,75.4-49.3,17.1-77.1-41-40.1-74.2,16.7-14.9,45.9-18.1,62.3-1.2h0Z"/>
              <path class="st7" d="M1559.7,368.1c.7,1.5,1.3,1.5,2,0,17.3-65.9,55.6-127.4,80.2-190.8.6-1.5,1.7-2.3,3.2-2.8,11.5-4.3,62.8-3.4,75.6-.3,2.3.6,3.7-1.5,3,2.9l-122.1,265.9c-2.3,3.4-7.4,4-11.3,4.7-30.6,5.1-61.9,2.3-92.4-1.5l-44-272c37.3-.9,74.1-15,85.4,31.6s9.1,55.1,12.3,79.7c3.6,27.5,4.8,55.3,8.3,82.7h-.2Z"/>
              <path class="st7" d="M1308.4,175.6l-30.6,20.4c-7.9-32-46.8-24.3-72-22l-52,352c32.4,3.7,71.1,13.8,82.6-26.4,6.7-23.8,7.7-52.9,11.5-77.6,41.9,51,120.3,39.9,153.6-15.4,49.5-82.3,59.5-287.5-93-231h0ZM1330.7,373.9c-19.5,27.9-65.5,28.1-70.7-9-2.2-15.9,8.9-91.1,14.9-106.8,6.2-16.3,20.9-29.4,38.5-31.5,16.8-2,32,4.7,37.4,21.5,8.4,25.8-4.1,103.1-20.1,125.9h0Z"/>
              <g>
                <path class="st7" d="M2034.3,117.6c-5.2,25-7.3,52.9-10.6,78.4-2.3,2.6-15.3-12.8-18.1-14.9-32.1-23.4-84.9-18.2-114.8,6.9-45.4,38.2-63.3,156.9-47.1,211,20.2,67.2,103,70.7,147,25,14,30.3,45.2,29.5,73.2,20.7l55.8-364.8c-43.5-4.3-74.6-14.2-85.4,37.6h0ZM2011.6,269c-.8,18.6-10.2,83.3-17.6,98.4-17.4,35.6-71.7,39.3-76.3-6.4-3.2-31.5,8.2-125.9,47.4-132.5,30.3-5.1,47.8,9.9,46.5,40.5Z"/>
                <path class="st7" d="M2314.7,182.1c-6.9,5.7-9.1,12-15,17.9-32.6-49.7-107.5-41.6-142,3-43.3,56.1-73.4,239.8,31.2,250.7,32.5,3.4,60.2-8.4,83.7-29.8,10.7,31.9,46.2,27.2,72.8,21.8l40.2-271.8c-23.6-1-50.9-8.5-70.9,8v.2h0ZM2274.4,367.8c-8.9,18.1-27.2,28.8-47.6,26-33.8-4.5-29.8-45.7-27.1-70.8,2.8-26.6,13.7-88.2,45.4-94.6,20.9-4.2,42.2,1.8,46.1,25,3,18-8.5,97.7-16.8,114.3h0Z"/>
              </g>
              <path class="st7" d="M1091.8,183c-6.3,5.6-8.3,11.6-13.9,17-33-49.9-106.8-41.2-142,3.1-43.6,54.9-72.6,239.9,31.2,250.7,32.4,3.4,60.3-8.1,83.7-29.8,11,31.8,45.9,27.4,72.7,21.7l40.3-271.8c-23.9-1.1-52.3-8.5-72,9h0ZM1059.3,348.5c-5.8,27.1-24.1,49.4-54.3,45.4-33.7-4.5-29.8-45.6-27.1-70.8,2.8-26.5,13.9-88.2,45.4-94.6,19.4-3.9,41.6,1.1,46.1,23,3.3,16.5-6.1,78-10.1,97h0Z"/>
            </g>
          </g>
          <g>
            <path class="st9" d="M585.5,544.5c17.2,26.5,32.7,55.3,52.4,79.6,1.8-9.9,7.2-77.1,10.1-79.9s12.8.5,15.9,0l-14,106c-5.6-.5-12.5,1.8-17-2l-51-78-10,80h-16l14.1-105.9,15.5.3h0Z"/>
            <path class="st8" d="M1241.8,580.1c14.4-12.9,45.3-16.5,52,6,6.3-2.1,2.1-5.2,18-13,17.7-7.6,39.6-3.1,44.6,17.4s-5.9,40.6-4.6,59.7h-16c-1.5-20.2,20.8-72.8-13-66.2-22.7,4.4-23.3,12.9-26.4,27.7-1.3,6.1-3.2,37-4.6,38.4s-13-.5-16,0c1.5-21.4,21-75.9-20.1-65h0c-7.9,1-13,8.2-14.7,10.7-3.7,5.3-5,10.8-7,28.8-.8,6.7-1.6,15.3-2.4,25.4-5.3,0-10.5.1-15.8.2l11.8-76.8c1.4-1.9,13.7-1.6,14.2-1.2.5.4,0,1.2,0,6,0,.8,0,1.5,0,2Z"/>
            <path class="st5" d="M801.9,586.1c-.4,12.1-10.1,38.8-1.1,48.1s21.1,4.5,25.5-4.7-1.1-18.4,17.6-17.4c3,25.4-14.6,43.9-40.5,39.5-38-6.4-13.3-61.3-17.5-65.5h-20c.6-2.4,1.6-13.4,2.1-13.9,1.5-1.5,16.6,1.5,19.6-.4,5.6-3.5-4.6-29,18.3-21.7l-2,22h38c-1.9,2.5-1.3,14-2,14h-38,0Z"/>
            <path class="st1" d="M913.5,583.7c-6.3,3.9-19.6-5.6-32.7,10.3-12.5,15.2-6.3,45.8-12.7,54.9-1.9,2.8-10.7.5-14.2,1.2,1.3-9.6,7.2-75.3,10.2-77.8s13.3-.7,13.8-.2c.9.9-1.5,7.1,1,8,8.8-7.5,24.3-13.1,35.7-9.7s.2,12.6-1,13.4h0Z"/>
            <path class="st9" d="M1023.7,544.9l-15.9,105.1h57c22.5,0,48-25,50.8-47.2,7.8-63.3-45-62-91.9-57.9h0ZM1098.9,600.2c-2.7,15.4-19.7,35.9-36.1,35.9h-37l11.9-77.1c31.9-5,68.4,0,61.2,41.3h0Z"/>
            <path class="st8" d="M1200,635.9c-4.5-6.3,15.7-42.7-7.2-59.8-19.5-14.5-57.1-4.1-65,20,2.8-.3,13.2,4.3,13.8,3.9,1.4-1,5.4-10,11.5-13.5,13.1-7.7,36.5-6.1,36.8,12.6-.7,4.3-59.3,4.3-65.2,23-11.7,37.6,43.4,36.7,61.1,16.1,1.8,13.3,10.9,12.8,22,12,3.9-15.2-5.9-11.6-7.8-14.2h0ZM1138.6,632.2c-4.5-16.2,39.5-16.8,49.2-20.1,4.4,21.1-44,38.9-49.2,20.1Z"/>
            <path class="st8" d="M1453.8,614.1c9.3-63.1-84.3-55.4-84.2,1,0,43.3,60.9,49.8,80.1,16,0-1.7-13.2-7.4-13.8-6.9-.3.2-1.1,4.2-3,6-16.4,16-50.5,10.6-47.2-16.1h68.1ZM1439.8,602.1h-52c9.5-22.5,46.5-28.7,52,0Z"/>
            <path class="st9" d="M914,622.9c4.5,33.2,58.7,38.9,74.7,15.1,5.3-7.9,3.8-12.3-6-11.8-3.1.2-11.1,9.1-18.4,11.3-18.8,5.6-35.4-2.6-36.4-23.4h70c7.3-67.1-92.3-53.9-83.8,8.8h0ZM931.9,602.1c7.1-22.2,49.6-29,50,0h-50Z"/>
            <path class="st8" d="M730.4,570.6c-70.4-12-81,88.8-11.5,81.5,9-.9,21.9-6.4,28.3-12.7,21.5-21.3,16.5-63.2-16.8-68.8ZM735.2,629.4c-29.7,29.8-69.5-16-33.2-40.2,30.8-20.5,56.8,16.6,33.2,40.2Z"/>
          </g>
        </g>
      </g>
    </g>
  </g>
</svg>