<?xml version="1.0" encoding="utf-8"?>
<!-- Generator: Adobe Illustrator 27.0.0, SVG Export Plug-In . SVG Version: 6.00 Build 0)  -->
<svg version="1.1" id="Layer_1" xmlns="http://www.w3.org/2000/svg" xmlns:xlink="http://www.w3.org/1999/xlink" x="0px" y="0px"
	 viewBox="0 0 200 120" style="enable-background:new 0 0 200 120;" xml:space="preserve">
<style type="text/css">
	.st0{fill:#253266;}
	.st1{fill:#FFFFFF;}
	.st2{fill:#010202;}
</style>
<g>
	<path class="st0" d="M68.9,33.9c0-5.3-3.2-8.8-8.6-8.8C43.1,25,25.8,25,8.5,25.1c-5.2,0-8.5,3.5-8.5,8.7v52.2C0,91.6,3.3,95,8.9,95
		h51c5.7,0,9-3.2,9-9v-26C68.9,51.2,69,42.6,68.9,33.9L68.9,33.9z M54,47.7c-12.1-8.2-25-6.1-37.5-4.2c-2.3-3.9-4.4-7.6-6.5-11.3
		C23.4,29.1,47.6,37.3,54,47.7z M60.5,70.5c-1.5,2.8-3.6,5.5-5.7,7.9c-1.9,2.1-4.2,3.9-6.4,5.7c-0.2,0.2-0.6,0.3-1.5,0.8
		c1.9-3,4.8-4.8,4.4-8.2c-1.7-1.5-3.8-1.3-5.5-0.8c-7.3,2.3-14.6,4.8-21.8,7.3c-3.9,1.4-7.6,3.2-11.9,5.1c3.8-5.9,5.3-12,6.2-18.8
		c3.8-1.2,7.8-2.7,11.9-3.9c7.4-2.1,14.8-3.6,22.5-3.2c1.7,0.1,3.4,0.5,5,1.1C61,64.9,62.2,67.4,60.5,70.5L60.5,70.5z M43.8,58.7
		c-7.8,1.2-15.6,3.2-23.3,4.9c-0.5,0.1-1,0.3-1.7,0.4c-0.3-5-0.6-9.9-1-15.1c11.2-3.2,22.6-4.8,33.8,0.5c5.4,2.6,8.7,7,9.9,13
		C56.2,57.9,49.9,57.8,43.8,58.7z"/>
	<g>
		<path class="st1" d="M60.5,70.5c-1.5,2.8-3.6,5.5-5.7,7.9c-1.9,2.1-4.2,3.9-6.4,5.7c-0.2,0.2-0.6,0.3-1.5,0.8
			c1.9-3,4.8-4.8,4.4-8.2c-1.7-1.5-3.8-1.3-5.5-0.8c-7.3,2.3-14.6,4.8-21.8,7.3c-3.9,1.4-7.6,3.2-11.9,5.1c3.8-5.9,5.3-12,6.2-18.8
			c3.8-1.2,7.8-2.7,11.9-3.9c7.4-2.1,14.8-3.6,22.5-3.2c1.7,0.1,3.4,0.5,5,1.1C61,64.9,62.2,67.4,60.5,70.5L60.5,70.5z"/>
		<path class="st1" d="M61.5,62.4c-5.3-4.5-11.6-4.6-17.7-3.7c-7.8,1.2-15.6,3.2-23.3,4.9c-0.5,0.1-1,0.3-1.7,0.4
			c-0.3-5-0.6-9.9-1-15.1c11.2-3.2,22.6-4.8,33.8,0.5C57,52,60.3,56.5,61.5,62.4z"/>
		<path class="st1" d="M54,47.7c-12.1-8.2-25-6.1-37.5-4.2c-2.3-3.9-4.4-7.6-6.5-11.3C23.4,29.1,47.6,37.3,54,47.7z"/>
	</g>
	<path class="st2" d="M100.7,72.3h-6.1c-1.6-3.8-3.4-5.2-7.3-4c-1.5,0.4-2.7,1.3-2.8,3.1s0.9,2.9,2.4,3.4c2,0.7,4,1.1,6.1,1.7
		c0.9,0.2,1.8,0.5,2.7,0.8c3.1,1.1,5.3,3,5.7,6.5c0.5,3.8-0.8,6.8-4.1,8.9C91.7,96,83,94.7,79.7,89.7c-1.1-1.6-1.8-3.8-2-5.9h5.9
		c1.1,5.6,5.1,6.9,9.6,4.8c1.1-0.5,2.1-1.7,2.2-2.9c0.1-1.3-0.7-2.8-1.9-3.3c-2.3-1-4.9-1.5-7.4-2.3c-3.3-1-6.3-2.4-7.2-6.2
		c-1.1-4.4,0.9-8.1,5.1-9.9c4.9-2.1,10.8-1.3,13.9,2.1C99.2,67.8,100.2,69.4,100.7,72.3L100.7,72.3z M168.9,74.3v-6v-5.7h5.3v31.4
		H169c0-0.6-0.1-1.2-0.2-2.1c-2.3,1.9-4.8,3-7.7,2.5c-2.9-0.4-5.3-1.5-7.1-4c-3.4-4.9-2.7-12.6,1.4-16.4
		C159.2,70.7,164.8,70.7,168.9,74.3L168.9,74.3z M169.3,83.1c0-4.3-2.3-6.9-6.1-6.8c-3.4,0-5.8,2.7-5.8,6.5c0,4.3,2.3,6.9,6,6.9
		C167,89.7,169.3,87.1,169.3,83.1L169.3,83.1z"/>
	<path class="st0" d="M85,44.1v11.6h-5.7V25.3c5.1,0,10.1-0.4,15.1,0.1c4.5,0.4,7.3,4.3,7.4,8.9c0.1,4.8-2.6,8.4-7.1,9.4
		C93.1,44,91.5,44,90,44.1C88.4,44.1,86.8,44.1,85,44.1L85,44.1z M85,39.1c2.4,0,4.6,0.1,6.7,0c2.6-0.1,4.2-1.8,4.2-4.3
		c0.1-2.7-1.3-4.6-3.9-4.8c-2.3-0.2-4.7,0-7.1,0L85,39.1z"/>
	<path class="st2" d="M199.8,84.1h-16c0,2.9,1.6,4.9,4.2,5.5c3.1,0.8,5.2-0.1,6.8-2.9h5.1c-1,5.2-6.3,8.6-12,7.6
		c-6.5-1.1-10.5-6.8-9.5-13.4c1-6.3,6.1-10.2,12.4-9.3C197,72.4,200.6,77.3,199.8,84.1L199.8,84.1z M183.8,80.4h10.5
		c-0.3-3.1-2-4.7-4.9-4.8C186.2,75.5,184.4,77.1,183.8,80.4L183.8,80.4z M109,79.3h-4.4c0-4.2,3.6-7.4,8.6-7.8
		c5.2-0.3,11.1,2.1,10.6,10.1c-0.2,4.1,0,8.2,0,12.4h-5.3c0-0.6-0.1-1.3-0.1-2.4c-2.5,2.4-5.2,3.4-8.4,2.7c-3.5-0.8-5.7-3.4-5.6-6.5
		c0.2-3.6,2.5-6.3,6.2-6.7c2.5-0.2,5.1,0,7.6,0c0.3-3-0.6-4.6-2.7-5.2C112.8,74.9,110.4,76.2,109,79.3L109,79.3z M118.4,84.6
		c-2.1,0-4-0.1-6,0c-1.8,0.2-2.9,1.2-2.7,3.1c0.1,1.8,1.4,2.5,3.1,2.6C115.9,90.6,117.9,88.7,118.4,84.6z"/>
	<path class="st0" d="M113.4,56.1c-6.7,0-11.6-4.9-11.6-11.6c0-6.4,4.9-11.2,11.5-11.2c6.9,0,11.7,4.8,11.7,11.4
		C125,51.3,120,56.1,113.4,56.1L113.4,56.1z M119.5,44.7c0-4.2-2.4-6.9-6.1-6.9c-3.6,0-6.1,2.8-6.1,6.7c0,3.9,2.5,6.7,6.1,6.8
		C116.9,51.4,119.5,48.7,119.5,44.7L119.5,44.7z M167.8,56c-6.8-0.1-11.6-4.8-11.6-11.4c0-6.7,4.9-11.4,11.8-11.4
		c6.8,0,11.6,5,11.4,11.7C179.2,51.5,174.4,56.1,167.8,56z M173.9,44.7c-0.1-4.2-2.5-6.8-6.3-6.7c-3.6,0.1-6.1,2.9-6,6.8
		c0,3.8,2.7,6.7,6.2,6.7C171.5,51.4,173.9,48.6,173.9,44.7z"/>
	<path class="st2" d="M143,72h5.3v22H143v-2.1c-2,0.9-3.9,2.1-6,2.5c-5,0.8-9.1-2.9-9.2-8c-0.1-4.7,0-9.4,0-14.3h5.4v11.8
		c0,3.6,1.6,5.6,4.5,5.7c3.1,0.1,5.2-2.1,5.3-5.7C143.1,80,143,76.1,143,72L143,72z"/>
	<path class="st0" d="M154.5,33.5V38h-6.1c0,3.6-0.1,7.1,0,10.5c0.1,1.5,1.1,2.5,2.7,2.5c1,0,2,0,3.2,0v4.8c-2-0.1-4-0.1-5.9-0.4
		c-3-0.5-5.1-3.1-5.5-6.1c0-0.5,0-1,0-1.4V27h5.3v6.5C150.5,33.5,152.4,33.5,154.5,33.5L154.5,33.5z M127.5,55.6
		c0-5.2-0.1-10.1,0-15c0.1-4,2.6-6.6,6.6-6.9c2-0.1,3.9,0,6,0V38h-3.5c-2.8,0-3.8,1-3.8,3.8v13.6C131,55.6,129.3,55.6,127.5,55.6
		L127.5,55.6z"/>
	<path class="st2" d="M144.9,63.1c-1.5,2.2-2.9,4.2-4.3,6.3h-4.7c1.1-2.3,2.1-4.4,3.1-6.3H144.9z"/>
</g>
</svg>
