<?xml version="1.0" encoding="UTF-8"?>
<svg id="Camada_1" xmlns="http://www.w3.org/2000/svg" version="1.1" viewBox="0 0 1732.9 659.3">
  <!-- Generator: Adobe Illustrator 29.5.1, SVG Export Plug-In . SVG Version: 2.1.0 Build 141)  -->
  <defs>
    <style>
      .st0 {
        fill: #676566;
      }

      .st1 {
        fill: none;
      }

      .st2 {
        fill: #e42528;
      }

      .st3 {
        fill: #1f9373;
      }
    </style>
  </defs>
  <path class="st1" d="M656.5,443.1h-12.7v22.6h14.2c6.1,0,11.3-5.1,11.3-11.5s-6.7-11.1-12.8-11.1Z"/>
  <path class="st1" d="M666.9,411.2c0-6.3-5-10.7-10.9-10.7h-12.2v22.1h12.2c5.9,0,10.9-5.1,10.9-11.4Z"/>
  <polygon class="st1" points="755.3 292.5 743.4 266.4 743.2 266.4 731.5 292.5 755.2 292.5 755.3 292.5"/>
  <polygon class="st1" points="1671.5 424.3 1659.8 450.3 1683.6 450.3 1683.6 450.3 1671.7 424.3 1671.5 424.3"/>
  <polygon class="st1" points="185.5 241.8 282.4 209.9 282.4 123.8 33.2 41.9 33.2 335.8 185.5 385.9 185.5 335.8 185.5 241.8"/>
  <polygon class="st1" points="455.2 468.9 455.2 335.8 455.2 175 302.9 225 302.9 446.4 206.1 414.5 206.1 550.8 455.2 468.9"/>
  <polygon class="st1" points="206.1 335.8 206.1 392.6 282.4 417.7 282.4 231.8 206.1 256.9 206.1 335.8"/>
  <path class="st1" d="M989.5,274.9c0-18-12.8-31.9-30.5-31.9h-15v64h15c17.7,0,30.5-14.1,30.5-32.1Z"/>
  <path class="st2" d="M642.6,284.6c10.6,4.3,16.1,9.3,16.1,16s-4.5,9.5-10.8,9.5c-10.3,0-21.6-8.4-22.2-8.7-1.1-.8-4.1-1.1-5.3,1l-7.3,13.1h0c-1.3,2.2-.8,2.8.8,4.4,3.6,3.6,14.9,12.2,35.2,12.2s36.9-16.4,36.9-32.7-19.4-31.1-31.6-36c-12.3-5.1-17-9.5-17-15.3s4.2-8.1,9.9-8.1c9.5,0,21,8.7,22.4,9.5,1.4,1.1,4.2-.3,5.3-2.1l8-12.2c.6-1.1.9-4-.9-5.1-4.7-3.5-17.2-11.9-33.5-11.9-24.1,0-36.1,15.8-36.1,31.4s16.9,29.6,30.3,34.9Z"/>
  <path class="st2" d="M691,326.3c-.9,2.1.3,4.1,2.7,4.1h17.2c3.1,0,4.9-1.9,5.6-3.8l5.6-12.6h42.5l5.6,12.5c1.4,3,2.7,4,5.5,4h17.4c2.3,0,3.6-2.1,2.7-4.1l-48.9-106.3c-.5-1-1.6-1.7-2.7-1.7h-1.6c-1.1,0-2.2.8-2.7,1.7l-48.9,106.3h0ZM743.2,266.4h.2l11.9,26.1h-23.8l11.7-26.1Z"/>
  <path class="st2" d="M838.6,210l28.5-13c1.3-.8,2.2-2.4.9-4.7l-5.3-9.3c-.8-1.4-3.1-1.1-4.1-.5l-26.6,16.4c-.8.6-1.6,1.7-.9,3l3.3,6.6h0c.8,1.6,2.2,2.7,4.2,1.4Z"/>
  <path class="st2" d="M849.5,332c24.7,0,44.7-19.9,44.7-43.9v-65.3c0-1.6-1.4-3-3-3h-19.2c-1.7,0-3,1.4-3,3v64c0,11.1-8.4,19.9-19.5,19.9s-19.2-8.9-19.2-19.9v-64c0-1.6-1.2-3-3-3h-19.2c-1.6,0-3,1.4-3,3h0v65.3c0,24,19.7,43.9,44.4,43.9Z"/>
  <path class="st2" d="M922.4,330.4h38.1c30.2,0,54.9-25.1,54.9-55.5s-24.7-55.2-54.9-55.2h-38.1c-1.6,0-2.8,1.4-2.8,3h0v104.6c0,1.6,1.3,3,2.8,3ZM944,243h15c17.7,0,30.5,13.9,30.5,31.9s-12.8,32.1-30.5,32.1h-15v-64Z"/>
  <path class="st2" d="M1102.2,243c1.7,0,3-1.4,3-3v-17.2c0-1.6-1.2-3-3-3h-64.7c-1.7,0-3,1.4-3,3v104.6c0,1.6,1.2,3,3,3h64.7c1.7,0,3-1.4,3-3v-17.2c0-1.6-1.2-3-3-3h-43.3v-21.3h35.7c1.6,0,3-1.2,3-3v-17.2c0-1.6-1.4-3-3-3h-35.7v-19.6h43.3Z"/>
  <path class="st3" d="M658.8,377.7h-36.4c-1.7,0-3,1.4-3,3h0v104.6c0,1.6,1.2,3,3,3h38.8c18.6,0,34.1-12.8,34.1-30.5s-12.7-22.3-20.9-25.8c7.4-4,18.1-12.8,18.1-25s-15.2-29.4-33.6-29.4ZM643.8,400.4h12.2c5.9,0,10.9,4.4,10.9,10.7s-5,11.4-10.9,11.4h-12.2v-22.1ZM658,465.7h-14.2v-22.6h12.7c6.1,0,12.8,4.6,12.8,11.1s-5.2,11.5-11.3,11.5Z"/>
  <path class="st3" d="M782.8,400.9c1.7,0,3-1.4,3-3v-17.2c0-1.6-1.2-3-3-3h-64.7c-1.7,0-3,1.4-3,3v104.6c0,1.6,1.2,3,3,3h64.7c1.7,0,3-1.4,3-3v-17.2c0-1.6-1.2-3-3-3h-43.3v-21.3h35.7c1.6,0,3-1.2,3-3v-17.2c0-1.6-1.4-3-3-3h-35.7v-19.6h43.3Z"/>
  <path class="st3" d="M895.2,489.8h2.5c1.6,0,3-1.3,3-2.8v-106.3c0-1.6-1.4-3-3-3h-18.8c-1.7,0-3,1.4-3,3v56.1h-.2l-62.4-60.7h-3.9c-1.6,0-3,1.3-3,2.8h0s.2,106.4.2,106.4c0,1.6,1.4,3,3,3h18.6c1.7,0,3-1.4,3-3v-58.9h.2l61.8,62.7c.3.3,1.6.8,2,.8Z"/>
  <path class="st3" d="M998.2,485.2v-17.2c0-1.6-1.2-3-3-3h-43.3v-21.3h35.7c1.6,0,3-1.2,3-3v-17.2c0-1.6-1.4-3-3-3h-35.7v-19.6h43.3c1.7,0,3-1.4,3-3v-17.2c0-1.6-1.2-3-3-3h-64.7c-1.7,0-3,1.4-3,3v104.6c0,1.6,1.2,3,3,3h64.7c1.7,0,3-1.4,3-3Z"/>
  <path class="st3" d="M1019.2,485.2c0,1.6,1.2,3,3,3h18.5c1.6,0,3-1.4,3-3v-38.4h35.7c1.6,0,3-1.4,3-3v-17.2c0-1.6-1.4-3-3-3h-35.7v-22.7h43.3c1.7,0,3-1.4,3-3v-17.2c0-1.6-1.2-3-3-3h-64.7c-1.7,0-3,1.4-3,3h0s0,104.6,0,104.6Z"/>
  <path class="st3" d="M1110.2,488.2h18.8c1.6,0,3-1.4,3-3v-104.6c0-1.6-1.4-3-3-3h-18.8c-1.6,0-3,1.4-3,3v104.6c0,1.6,1.4,3,3,3Z"/>
  <path class="st3" d="M1208.1,399.9c7.7,0,15.3,2.8,21.1,8.1,1.1,1.1,2.8,1.1,3.9,0l12.2-12.8c1.2-1.3,1.2-3.2-.2-4.4-10.6-9.8-22.2-14.7-37.8-14.7h0c-31.3,0-56.5,25.4-56.5,57s25.2,56.7,56.5,56.7,27.4-4.9,38-15.3c1.1-1.1,1.3-3.2.2-4.3l-12.2-13.1c-.9-1.1-3-1.1-4.1-.2-5.6,4.9-13.6,7.6-20.9,7.6-17.7,0-30.8-14.4-30.8-32.1s13-32.6,30.7-32.6Z"/>
  <path class="st3" d="M1331.8,377.7h-64.7c-1.7,0-3,1.4-3,3v104.6c0,1.6,1.2,3,3,3h64.7c1.7,0,3-1.4,3-3v-17.2c0-1.6-1.2-3-3-3h-43.3v-21.3h35.7c1.6,0,3-1.2,3-3v-17.2c0-1.6-1.4-3-3-3h-35.7v-19.6h43.3c1.7,0,3-1.4,3-3v-17.2c0-1.6-1.2-3-3-3Z"/>
  <path class="st3" d="M1281.3,367.2c.9,1.2,1.7,1.6,3.4.6l15.6-9.2,15.5,9.2c1.1.6,2.5.3,3.3-.8l5.3-7.3c.6-1.2-.2-2.4-.9-3l-21.6-16.4c-.9-.6-2.5-1-3.7,0l-21.1,16.4c-.8.6-1.7,1.9-.9,3l5.2,7.4h0Z"/>
  <path class="st3" d="M1446.7,377.7h-18.8c-1.7,0-3,1.4-3,3v56.1h-.2l-62.4-60.7h-3.9c-1.6,0-3,1.3-3,2.8h0s.2,106.4.2,106.4c0,1.6,1.4,3,3,3h18.6c1.7,0,3-1.4,3-3v-58.9h.2l61.8,62.7c.3.3,1.6.8,2,.8h2.5c1.6,0,3-1.3,3-2.8v-106.3c0-1.6-1.4-3-3-3Z"/>
  <path class="st3" d="M1525.8,399.9c7.7,0,15.3,2.8,21.1,8.1,1.1,1.1,2.8,1.1,3.9,0l12.2-12.8c1.2-1.3,1.2-3.2-.2-4.4-10.6-9.8-22.2-14.7-37.8-14.7h0c-31.3,0-56.5,25.4-56.5,57s25.2,56.7,56.5,56.7,27.4-4.9,38-15.3c1.1-1.1,1.3-3.2.2-4.3l-12.2-13.1c-.9-1.1-3-1.1-4.1-.2-5.6,4.9-13.6,7.6-20.9,7.6-17.7,0-30.8-14.4-30.8-32.1s13-32.6,30.7-32.6Z"/>
  <path class="st3" d="M1603.5,377.7h-18.8c-1.6,0-3,1.4-3,3v104.6c0,1.6,1.4,3,3,3h18.8c1.6,0,3-1.4,3-3v-104.6c0-1.6-1.4-3-3-3Z"/>
  <path class="st3" d="M1698.6,484.3c1.4,3,2.7,4,5.5,4h17.4c2.3,0,3.6-2.1,2.7-4.1l-48.9-106.3c-.5-1-1.6-1.7-2.7-1.7h-1.6c-1.1,0-2.2.8-2.7,1.7l-48.9,106.3h0c-.9,2.1.3,4.1,2.7,4.1h17.2c3.1,0,4.9-1.9,5.6-3.8l5.6-12.6h42.5l5.6,12.5ZM1683.6,450.3h-23.8l11.7-26.1h.2l11.9,26.1h0Z"/>
  <polygon class="st3" points="455.2 175 455.2 335.8 455.2 468.9 206.1 550.8 206.1 414.5 206.1 392.6 206.1 335.8 206.1 256.9 282.4 231.8 282.4 209.9 185.5 241.8 185.5 335.8 185.5 385.9 185.5 407.7 185.5 579.4 475.8 484 475.8 335.8 475.8 146.3 302.9 203.2 302.9 225 455.2 175"/>
  <polygon class="st2" points="185.5 385.9 33.2 335.8 33.2 41.9 282.4 123.8 282.4 209.9 282.4 231.8 282.4 417.7 206.1 392.6 206.1 414.5 302.9 446.4 302.9 225 302.9 203.2 302.9 108.7 12.7 13.3 12.7 350.9 185.5 407.7 185.5 385.9"/>
  <g>
    <path class="st0" d="M642.6,646.3c14.5,0,25.4-11.4,25.4-26.2s-11.1-26.4-25.4-26.4-25.4,11.5-25.4,26.4,11,26.2,25.4,26.2ZM642.6,598.4c10.3,0,20.2,8.1,20.2,21.7s-9.9,21.5-20.2,21.5-20.2-7.8-20.2-21.5,9.9-21.7,20.2-21.7Z"/>
    <path class="st0" d="M642.6,648c-15.5,0-27.1-12-27.1-27.9s11.9-28.1,27.1-28.1,27.1,12.3,27.1,28.1-11.7,27.9-27.1,27.9ZM642.6,595.4c-13.3,0-23.7,10.8-23.7,24.7s10.2,24.5,23.7,24.5,23.7-10.6,23.7-24.5-10.4-24.7-23.7-24.7ZM642.6,643.3c-10.6,0-21.9-8.1-21.9-23.2s11.3-23.3,21.9-23.3,21.9,8.2,21.9,23.3-11.3,23.2-21.9,23.2ZM642.6,600.1c-9,0-18.6,7-18.6,20s9.6,19.8,18.6,19.8,18.6-6.9,18.6-19.8-9.6-20-18.6-20Z"/>
  </g>
  <g>
    <path class="st0" d="M711.1,641.4c-4.7,0-9-1.5-12-3.7-1.4-1-2-1.3-2.8-1.3-1.3,0-2.3,1.1-2.3,2.3s.9,2,1.5,2.5h0c5,3.7,10,4.9,15.2,4.9,8.7,0,15.8-5.3,15.8-13.9s-5.7-11.5-12.9-15c-5.6-2.7-11.8-5.2-11.8-10.8s3.5-8,10.1-8,6.6,1.1,8.7,2.2c.4.2,1.4.7,2,.7,1.5,0,2.3-1.1,2.3-2.3s-.9-2-2.3-2.8c-2.9-1.6-6.8-2.5-10.8-2.5-8.9,0-15.2,5.1-15.2,12.9s6.3,11.1,13.8,14.7c6.3,3,10.9,5.7,10.9,11.2s-4.2,8.9-10.3,8.9Z"/>
    <path class="st0" d="M710.8,647.9c-5.2,0-9.5-1.1-13.5-3.4v.2l-2.7-2c-.6-.4-2.2-1.6-2.2-3.8s1.8-4,4-4,2.3.6,3.8,1.6c3,2.1,7,3.4,11,3.4s8.6-2.8,8.6-7.2-3.2-6.5-9.9-9.7c-6.9-3.3-14.8-7.1-14.8-16.3s7-14.6,16.9-14.6,8.4,1,11.6,2.7c1,.5,3.2,1.7,3.2,4.3s-1.7,4-4,4-1.9-.4-2.8-.9c-2-1-4.5-2-8-2-5.8,0-8.4,3.2-8.4,6.3s4.7,6.4,9.6,8.7l1.2.6c6.7,3.2,13.9,7.4,13.9,16.5s-7.4,15.6-17.5,15.6ZM696.4,639.7l.2.2c4.2,3.1,8.5,4.5,14.2,4.5,8.3,0,14.1-5,14.1-12.2s-4.4-9.8-12-13.4l-1.2-.6c-5.4-2.6-11.6-5.5-11.6-11.8s3.7-9.7,11.8-9.7,7.3,1.3,9.5,2.4c.8.4,1.1.5,1.3.5.4,0,.6-.2.6-.6s0-.5-1.4-1.3c-2.7-1.5-6.4-2.3-10-2.3-8.1,0-13.5,4.5-13.5,11.2s5.1,9.5,12.9,13.2c6.5,3.1,11.9,6.2,11.9,12.7s-4.8,10.6-12,10.6-9.5-1.5-13-4c-1.2-.9-1.6-1-1.8-1-.4,0-.6.3-.6.6s.2.6.6.9Z"/>
  </g>
  <g>
    <path class="st0" d="M764.5,599c1.4,0,2.4-1.1,2.4-2.3s-1-2.3-2.4-2.3h-23.9c-1.4,0-2.4,1-2.4,2.6v46.1h0c0,1.4,1,2.5,2.6,2.5h24.7c1.4,0,2.4-1.1,2.4-2.3s-1-2.3-2.4-2.3h-22.2v-19.1h19.3c1.4,0,2.4-1,2.4-2.3s-1-2.3-2.4-2.3h-19.3v-18.3h21.3Z"/>
    <path class="st0" d="M765.4,647.3h-24.7c-2.4,0-4.3-1.8-4.3-4.2v-46.1c0-2.4,1.8-4.3,4.1-4.3h23.9c2.3,0,4.1,1.7,4.1,4s-1.8,4-4.1,4h-19.6v15h17.6c2.3,0,4.1,1.7,4.1,4s-1.8,4-4.1,4h-17.6v15.7h20.5c2.3,0,4.1,1.7,4.1,4s-1.8,4-4.1,4ZM740.6,596.1c-.4,0-.7.3-.7.9v46.1c0,.7.5.8.9.8h24.7c.5,0,.7-.3.7-.6s0-.6-.7-.6h-23.9v-22.5h21c.3,0,.7,0,.7-.6s-.4-.6-.7-.6h-21v-21.7h23c.5,0,.7-.3.7-.6s0-.6-.7-.6h-23.9Z"/>
  </g>
  <g>
    <path class="st0" d="M783.3,625v-28.4c0-1.5-1-2.6-2.5-2.6s-2.6,1-2.6,2.6v28.5c0,11.7,7.3,21.2,20.4,21.2s20.3-9.5,20.3-21.1v-28.6c0-1.5-1.1-2.6-2.5-2.6s-2.5,1-2.5,2.6v28.6c0,10.1-5.5,16.5-15.4,16.5s-15.4-6.5-15.4-16.7Z"/>
    <path class="st0" d="M798.7,648c-13.2,0-22.1-9.2-22.1-22.9v-28.5c0-2.4,1.8-4.2,4.3-4.2s4.2,1.8,4.2,4.2v28.4c0,9.5,5,15,13.7,15s13.7-5.4,13.7-14.9v-28.6c0-2.4,1.8-4.2,4.2-4.2s4.2,1.9,4.2,4.2v28.6c0,13.7-8.8,22.8-22,22.8ZM780.8,595.8c-.6,0-.9.3-.9.9v28.5c0,9.7,5.8,19.5,18.7,19.5s18.6-7.6,18.6-19.4v-28.6c0-.6-.4-.9-.8-.9-.7,0-.8.5-.8.9v28.6c0,11.3-6.5,18.2-17.1,18.2s-17.1-7-17.1-18.4v-28.4c0-.9-.6-.9-.8-.9Z"/>
  </g>
  <g>
    <path class="st0" d="M883.5,610.4c0-9.3-7.4-15.9-17.2-15.9h-8.7c0,0-2.6,0-2.6,0-1.5,0-2.5,1.1-2.5,2.5v46.5c0,1.5,1,2.6,2.5,2.6s2.6-1,2.6-2.6v-16.8h8.7c9.9,0,17.2-6.8,17.2-16.1ZM865.8,621.9h-8.3v-22.9h8.4c7.5,0,12.3,4.1,12.3,11.4s-4.9,11.5-12.4,11.5Z"/>
    <path class="st0" d="M855,647.6c-2.4,0-4.2-1.8-4.2-4.3v-46.5c0-2.4,1.8-4.2,4.2-4.2h4.3c0,0,7,0,7,0,11,0,18.9,7.4,18.9,17.6s-8.1,17.8-18.9,17.8h-7v15.1c0,2.4-1.8,4.3-4.3,4.3ZM855,596.1c-.7,0-.8.6-.8.8v46.5c0,.9.6.9.8.9.6,0,.9-.3.9-.9v-18.5h10.4c9,0,15.5-6.1,15.5-14.4s-6.5-14.2-15.5-14.2h-10.4c0,0-.9,0-.9,0ZM865.8,623.6h-10v-26.2h10.1c8.5,0,14,5.1,14,13s-5.5,13.2-14.1,13.2ZM859.3,620.2h6.6c6.7,0,10.7-3.7,10.7-9.8s-3.9-9.7-10.7-9.7h-6.7v19.5Z"/>
  </g>
  <g>
    <path class="st0" d="M918.8,641h-19.6v-44.4c0-1.5-1.1-2.6-2.6-2.6s-2.5,1-2.5,2.6v46.5c0,1.4,1,2.5,2.5,2.5h22.1c1.3,0,2.3-1,2.3-2.3s-1-2.3-2.3-2.3Z"/>
    <path class="st0" d="M918.8,647.3h-22.1c-2.4,0-4.2-1.8-4.2-4.2v-46.5c0-2.5,1.8-4.2,4.2-4.2s4.3,1.8,4.3,4.2v42.7h17.9c2.2,0,4,1.7,4,4s-1.7,4-4,4ZM896.7,595.8c-.4,0-.8,0-.8.9v46.5c0,.2,0,.8.8.8h22.1c.4,0,.6-.2.6-.6s-.2-.6-.6-.6h-21.3v-46.1c0-.6-.3-.9-.9-.9Z"/>
  </g>
  <g>
    <path class="st0" d="M946.3,594.1c-2,0-3.3,1.2-4.1,3.3l-17.4,45c-.1.4-.2.8-.2,1,0,1.4,1.1,2.4,2.4,2.4s1.9-.4,2.5-2l5.3-13.8h23.1l5.2,13.8c.6,1.5,1.4,2,2.5,2s2.5-1.1,2.5-2.3,0-.7-.3-1.3l-17.2-44.7c-.8-2.2-2.3-3.4-4.2-3.4ZM936.5,625.4l9.8-25.6h.1l9.7,25.6h-19.6Z"/>
    <path class="st0" d="M965.5,647.5c-2.8,0-3.7-2.3-4.1-3.1l-4.8-12.7h-20.8l-4.9,12.7c-1,2.5-2.8,3-4.1,3-2.3,0-4.1-1.8-4.1-4.1,0-.5.1-1.1.3-1.7l17.4-45c1.1-2.8,3.1-4.4,5.7-4.4s4.7,1.6,5.8,4.5l17.2,44.7c.2.6.4,1.2.4,1.9,0,2.3-1.8,4-4.2,4ZM933.5,628.3h25.5l5.6,14.9c.4.9.6.9.9.9.5,0,.8-.3.8-.6s0-.1-.2-.7l-17.2-44.7c-.8-2.1-1.9-2.3-2.6-2.3s-1.7,0-2.6,2.2l-17.4,45c0,.2-.1.4-.1.5,0,.5.4.7.7.7s.6,0,.9-.9l5.7-14.9ZM958.6,627.1h-24.6l11.1-29h2.5l11,29ZM938.9,623.7h14.7l-7.3-19.3-7.4,19.3Z"/>
  </g>
  <g>
    <polygon class="st0" points="924.6 643.4 924.6 643.4 924.6 643.4 924.6 643.4"/>
    <polygon class="st0" points="922.9 643.7 924.5 643.4 922.9 643.4 922.9 643.2 923.8 643.3 926.2 643.1 926.2 643.5 926.2 643.6 924.5 643.4 922.9 643.7"/>
  </g>
  <g>
    <path class="st0" d="M1013.7,596.6v42.1h-.1l-27.9-42c-1.2-1.8-2.5-2.6-4.1-2.6s-3.8,1.7-3.8,3.9v45.3c0,1.4,1.1,2.6,2.4,2.6s2.5-1.2,2.5-2.6v-42.2h.1l27.9,42c1.2,1.8,2.5,2.7,4.4,2.7s3.7-1.6,3.7-3.9v-45.3c0-1.5-1.1-2.6-2.4-2.6s-2.6,1-2.6,2.6Z"/>
    <path class="st0" d="M1015,647.6c-3.1,0-4.8-2-5.8-3.5l-24.9-37.6v36.8c0,2.3-1.9,4.3-4.2,4.3s-4.1-1.9-4.1-4.3v-45.3c0-3.2,2.4-5.6,5.5-5.6s4,1.1,5.6,3.4l24.9,37.6v-36.7c0-2.4,1.8-4.2,4.3-4.2s4.1,1.8,4.1,4.2v45.3c0,3.2-2.3,5.6-5.4,5.6ZM980.9,599.4h2.8l28.4,42.8c1.1,1.6,1.9,2,2.9,2s2-.9,2-2.2v-45.3c0-.4-.2-.9-.7-.9s-.9.2-.9.9v43.8h-2.8l-28.4-42.8c-1.1-1.6-2-1.9-2.7-1.9-1.3,0-2.1.9-2.1,2.2v45.3c0,.4.3.9.7.9s.8-.4.8-.9v-43.9Z"/>
  </g>
  <g>
    <path class="st0" d="M1055.9,593.7c-14.4,0-25.4,11.5-25.4,26.4s11,26.2,25.4,26.2,25.4-11.4,25.4-26.2-11.1-26.4-25.4-26.4ZM1055.9,641.6c-10.2,0-20.2-7.8-20.2-21.5s9.9-21.7,20.2-21.7,20.2,8.1,20.2,21.7-9.9,21.5-20.2,21.5Z"/>
    <path class="st0" d="M1055.9,648c-15.5,0-27.1-12-27.1-27.9s11.9-28.1,27.1-28.1,27.1,12.3,27.1,28.1-11.7,27.9-27.1,27.9ZM1055.9,595.4c-13.3,0-23.7,10.8-23.7,24.7s10.2,24.5,23.7,24.5,23.7-10.6,23.7-24.5-10.4-24.7-23.7-24.7ZM1055.9,643.3c-10.6,0-21.9-8.1-21.9-23.2s11.3-23.3,21.9-23.3,21.9,8.2,21.9,23.3-11.3,23.2-21.9,23.2ZM1055.9,600.1c-9,0-18.6,7-18.6,20s9.6,19.8,18.6,19.8,18.6-6.9,18.6-19.8-9.6-20-18.6-20Z"/>
  </g>
</svg>