<?xml version="1.0" encoding="utf-8"?>
<!-- Generator: Adobe Illustrator 27.0.0, SVG Export Plug-In . SVG Version: 6.00 Build 0)  -->
<svg version="1.1" id="Camada_1" xmlns="http://www.w3.org/2000/svg" xmlns:xlink="http://www.w3.org/1999/xlink" x="0px" y="0px"
	 viewBox="0 0 200 120" style="enable-background:new 0 0 200 120;" xml:space="preserve">
<style type="text/css">
	.st0{fill:url(#SVGID_1_);}
	.st1{fill:url(#SVGID_00000163765475979058726150000014704938091626819750_);}
	.st2{fill:url(#SVGID_00000124844047093149631460000008170921646707522721_);}
	.st3{fill:url(#SVGID_00000135649447636008284110000011489666537144649875_);}
	.st4{fill:url(#SVGID_00000062188178453314573550000017765709290176639926_);}
	.st5{fill:url(#SVGID_00000159452057625297655890000013178715856590480813_);}
	.st6{fill:url(#SVGID_00000091005160641537040250000013293267446368796814_);}
	.st7{fill:url(#SVGID_00000157300164697132565240000009812864213532075431_);}
	.st8{fill:url(#SVGID_00000013153945979505676910000001032478485657257363_);}
	.st9{fill:url(#SVGID_00000083049362841634494800000002727998486340695427_);}
	.st10{fill:url(#SVGID_00000037674747442455007190000006082794634792770475_);}
	.st11{fill:url(#SVGID_00000168111343815149091430000016644940930340234662_);}
	.st12{fill:#8B1913;}
	.st13{fill:#373736;}
	.st14{fill:#C93618;}
</style>
<g>
	
		<linearGradient id="SVGID_1_" gradientUnits="userSpaceOnUse" x1="12.3601" y1="70.8818" x2="13.6869" y2="47.2979" gradientTransform="matrix(1 0 0 -1 0 122.22)">
		<stop  offset="0" style="stop-color:#F29218"/>
		<stop  offset="0.61" style="stop-color:#D83E16"/>
		<stop  offset="1" style="stop-color:#8B1913"/>
	</linearGradient>
	<path class="st0" d="M15.5,42.5l-7,3.4c-0.1-0.8,0.3-1.7,0.9-2.2c1.1-0.8,4.1-2.8,4.1-2.8s0.9-0.7,1.2-0.1
		C15,41.3,15.3,41.9,15.5,42.5z"/>
	
		<linearGradient id="SVGID_00000023275975109588440320000010998740412675436191_" gradientUnits="userSpaceOnUse" x1="42.432" y1="72.5822" x2="43.7588" y2="48.9898" gradientTransform="matrix(1 0 0 -1 0 122.22)">
		<stop  offset="0" style="stop-color:#F29218"/>
		<stop  offset="0.61" style="stop-color:#D83E16"/>
		<stop  offset="1" style="stop-color:#8B1913"/>
	</linearGradient>
	
		<rect x="40.2" y="46.5" style="fill:url(#SVGID_00000023275975109588440320000010998740412675436191_);" width="5.3" height="19.9"/>
	
		<linearGradient id="SVGID_00000031904682702448421340000002908438937413442744_" gradientUnits="userSpaceOnUse" x1="29.1917" y1="71.8344" x2="30.5269" y2="48.2504" gradientTransform="matrix(1 0 0 -1 0 122.22)">
		<stop  offset="0" style="stop-color:#F29218"/>
		<stop  offset="0.61" style="stop-color:#D83E16"/>
		<stop  offset="1" style="stop-color:#8B1913"/>
	</linearGradient>
	<path style="fill:url(#SVGID_00000031904682702448421340000002908438937413442744_);" d="M35.4,46.5c-0.9,0-1.6,0.7-1.6,1.6
		c0,0,0,0,0,0v6.4l2.9,6.5L25.3,46.5h-3.6c-0.9,0-1.6,0.7-1.6,1.6c0,0,0,0,0,0v18.3h3.6c0.9,0,1.6-0.7,1.6-1.6c0,0,0,0,0,0V56
		l8.5,10.4h5.3V46.5H35.4z"/>
	
		<linearGradient id="SVGID_00000067928136055182681940000002371528447431527833_" gradientUnits="userSpaceOnUse" x1="76.8753" y1="74.5217" x2="78.2021" y2="50.9293" gradientTransform="matrix(1 0 0 -1 0 122.22)">
		<stop  offset="0" style="stop-color:#F29218"/>
		<stop  offset="0.61" style="stop-color:#D83E16"/>
		<stop  offset="1" style="stop-color:#8B1913"/>
	</linearGradient>
	<path style="fill:url(#SVGID_00000067928136055182681940000002371528447431527833_);" d="M80.7,46.5h-5.6l-8.9,20h5.8l1.6-3.9h8.6
		l1.6,3.9h5.8L80.7,46.5z M80.5,58.2h-5.1l2.6-6.3l2,5.1l4.1,1.2L80.5,58.2z"/>
	
		<linearGradient id="SVGID_00000141449687449320114400000002143222377211331495_" gradientUnits="userSpaceOnUse" x1="122.2578" y1="77.0732" x2="123.5846" y2="53.4893" gradientTransform="matrix(1 0 0 -1 0 122.22)">
		<stop  offset="0" style="stop-color:#F29218"/>
		<stop  offset="0.61" style="stop-color:#D83E16"/>
		<stop  offset="1" style="stop-color:#8B1913"/>
	</linearGradient>
	<path style="fill:url(#SVGID_00000141449687449320114400000002143222377211331495_);" d="M126.2,46.5h-5.5l-8.9,20h5.8l1.6-3.9h8.6
		l1.6,3.9h5.8L126.2,46.5z M126,58.2h-5.1l2.6-6.3l2,5.1l4.1,1.2L126,58.2z"/>
	
		<linearGradient id="SVGID_00000093170355712610365310000008526669773550794391_" gradientUnits="userSpaceOnUse" x1="9.2317" y1="70.7113" x2="10.5584" y2="47.1189" gradientTransform="matrix(1 0 0 -1 0 122.22)">
		<stop  offset="0" style="stop-color:#F29218"/>
		<stop  offset="0.61" style="stop-color:#D83E16"/>
		<stop  offset="1" style="stop-color:#8B1913"/>
	</linearGradient>
	<path style="fill:url(#SVGID_00000093170355712610365310000008526669773550794391_);" d="M13.4,46.5v11.7c0,2.2-1.7,4-3.9,4.1
		c-2.2,0.1-4.1-1.7-4.2-3.9c0,0,0-0.1,0-0.1V47.8c0-0.7-0.6-1.3-1.3-1.3c0,0,0,0,0,0H0v11.6c0,4.8,3.8,8.7,8.6,8.7H10
		c4.8,0,8.6-3.9,8.6-8.7V47.8c0-0.7-0.6-1.3-1.3-1.3H13.4z"/>
	
		<linearGradient id="SVGID_00000029006450456125809830000017669964784552021182_" gradientUnits="userSpaceOnUse" x1="146.7447" y1="78.4591" x2="148.0715" y2="54.8667" gradientTransform="matrix(1 0 0 -1 0 122.22)">
		<stop  offset="0" style="stop-color:#F29218"/>
		<stop  offset="0.61" style="stop-color:#D83E16"/>
		<stop  offset="1" style="stop-color:#8B1913"/>
	</linearGradient>
	<path style="fill:url(#SVGID_00000029006450456125809830000017669964784552021182_);" d="M150.3,42.5l-7,3.4
		c-0.1-0.8,0.3-1.6,1-2.2c1.1-0.9,4-2.8,4-2.8s0.9-0.7,1.2-0.1C149.8,41.3,150.1,41.9,150.3,42.5z"/>
	
		<linearGradient id="SVGID_00000026884992294092045110000008025801204737506721_" gradientUnits="userSpaceOnUse" x1="143.6243" y1="78.281" x2="144.9511" y2="54.6971" gradientTransform="matrix(1 0 0 -1 0 122.22)">
		<stop  offset="0" style="stop-color:#F29218"/>
		<stop  offset="0.61" style="stop-color:#D83E16"/>
		<stop  offset="1" style="stop-color:#8B1913"/>
	</linearGradient>
	<path style="fill:url(#SVGID_00000026884992294092045110000008025801204737506721_);" d="M148.2,46.5v11.7c0,2.2-1.7,4-3.9,4.1
		c-2.2,0.1-4.1-1.7-4.2-3.9c0,0,0-0.1,0-0.1V47.8c0-0.7-0.6-1.3-1.3-1.3c0,0,0,0,0,0h-4v11.6c0,4.8,3.8,8.7,8.6,8.7h1.4
		c4.8,0,8.6-3.9,8.6-8.7V47.8c0-0.7-0.5-1.2-1.2-1.3H148.2z"/>
	
		<linearGradient id="SVGID_00000160907602452822771780000017809873879062190232_" gradientUnits="userSpaceOnUse" x1="56.6602" y1="73.3821" x2="57.9869" y2="49.7897" gradientTransform="matrix(1 0 0 -1 0 122.22)">
		<stop  offset="0" style="stop-color:#F29218"/>
		<stop  offset="0.61" style="stop-color:#D83E16"/>
		<stop  offset="1" style="stop-color:#8B1913"/>
	</linearGradient>
	<path style="fill:url(#SVGID_00000160907602452822771780000017809873879062190232_);" d="M58.3,61.9c-3.3,0-6-2.4-6-5.4
		s2.7-5.4,6-5.4c1.3,0,2.6,0.4,3.7,1.2c0.7,0.5,1.7,0.4,2.3-0.2l2.2-2.5c-2.1-2.3-5.1-3.5-8.2-3.5c-6,0-10.9,4.7-10.9,10.4
		s4.9,10.4,10.9,10.4c2.6,0,5-0.9,7.1-2.4c0.7-0.6,0.8-1.7,0.2-2.4c-0.1-0.1-0.1-0.1-0.2-0.2l-2.4-2C61.8,61.2,60.1,61.9,58.3,61.9z
		"/>
	
		<linearGradient id="SVGID_00000011717663677943670230000005753300338186052281_" gradientUnits="userSpaceOnUse" x1="163.9679" y1="79.4269" x2="165.2946" y2="55.843" gradientTransform="matrix(1 0 0 -1 0 122.22)">
		<stop  offset="0" style="stop-color:#F29218"/>
		<stop  offset="0.61" style="stop-color:#D83E16"/>
		<stop  offset="1" style="stop-color:#8B1913"/>
	</linearGradient>
	<path style="fill:url(#SVGID_00000011717663677943670230000005753300338186052281_);" d="M165.1,46.4h-10.6v18.1
		c0,1,0.8,1.8,1.8,1.8h8.9c5.5,0.1,10.1-4.3,10.2-9.8c0.1-5.5-4.3-10.1-9.8-10.2C165.5,46.4,165.3,46.4,165.1,46.4L165.1,46.4z
		 M169.8,58c-0.4,2.2-2.3,3.8-4.5,4h-5v-8.8l-4-2.2h9c2.2,0.1,4.1,1.8,4.5,4c0.2,0.5,0.3,1,0.3,1.6C170.1,56.9,170,57.5,169.8,58z"
		/>
	
		<linearGradient id="SVGID_00000026146528031707082110000005843711777787261873_" gradientUnits="userSpaceOnUse" x1="183.4979" y1="80.526" x2="184.8247" y2="56.9421" gradientTransform="matrix(1 0 0 -1 0 122.22)">
		<stop  offset="0" style="stop-color:#F29218"/>
		<stop  offset="0.61" style="stop-color:#D83E16"/>
		<stop  offset="1" style="stop-color:#8B1913"/>
	</linearGradient>
	<path style="fill:url(#SVGID_00000026146528031707082110000005843711777787261873_);" d="M192.2,46.4h-15.8v17.5
		c0,1.4,1.1,2.5,2.5,2.5h13.3v-4.5h-9.9v-3.4h9.4v-4.4h-9.4v-1.5l-3-1.8h12.9V46.4z"/>
	
		<linearGradient id="SVGID_00000049942730892924126930000001235160986193471935_" gradientUnits="userSpaceOnUse" x1="102.564" y1="75.9692" x2="103.8992" y2="52.3768" gradientTransform="matrix(1 0 0 -1 0 122.22)">
		<stop  offset="0" style="stop-color:#F29218"/>
		<stop  offset="0.61" style="stop-color:#D83E16"/>
		<stop  offset="1" style="stop-color:#8B1913"/>
	</linearGradient>
	<path style="fill:url(#SVGID_00000049942730892924126930000001235160986193471935_);" d="M107.3,55.2c-1.9-0.4-3.8-0.9-5.7-1.6
		c-0.9-0.4-1.5-0.9-1.4-1.4c0.1-1,1.1-1.8,3.7-1.8c1.4,0.1,2.8,0.4,4.1,0.9c0.7,0.2,1.5-0.1,1.8-0.7l1-2.1c0.1-0.2,0-0.4-0.2-0.5
		c0,0,0,0,0,0c-2.4-1.2-5.1-1.8-7.8-1.8c-4.1,0-8.5,1.9-8.2,6.4c0.1,4,3,5,4.5,5.4c1.9,0.4,3.8,0.9,5.7,1.6c0.9,0.4,1.5,0.9,1.4,1.4
		c-0.1,1-1.1,1.8-3.7,1.8c-2.2,0-5.2-1.3-6-1.6c-0.1-0.1-0.3,0-0.3,0.1l-1,2.1c-0.4,0.7-0.1,1.6,0.7,1.9c0,0,0,0,0,0
		c2.4,1.1,5,1.7,7.7,1.8c4,0,8.5-1.9,8.2-6.3C111.7,56.5,108.8,55.6,107.3,55.2z"/>
	<rect x="195.3" y="46.4" class="st12" width="0.5" height="2.4"/>
	<rect x="194.5" y="46.4" class="st12" width="2.2" height="0.5"/>
	<polygon class="st12" points="199.3,46.4 198.4,48 197.4,46.4 196.8,46.4 196.8,48.8 197.4,48.8 197.4,47.6 198.1,48.8 198.4,48.8 
		198.6,48.8 199.3,47.6 199.3,48.8 200,48.8 200,46.4 	"/>
	<path class="st13" d="M3,72.2l-2.4,7.1h1.2l0.7-2.2h2.3l0.7,2.2h1.2l-2.4-7.1H3z M3.9,74.4l0.6,1.8H2.7l0.6-1.8
		c0.1-0.3,0.2-0.5,0.2-0.9C3.7,73.8,3.8,74.1,3.9,74.4L3.9,74.4z"/>
	<path class="st13" d="M9.7,75.2c-1-0.4-1.3-0.7-1.3-1.2s0.6-0.9,1.2-0.9c0.4,0,0.9,0.1,1.3,0.3l0.1,0.1l0.3-0.9l-0.1-0.1
		c-0.5-0.2-1-0.4-1.6-0.3c-1.4,0-2.3,0.9-2.3,2c0,0.9,0.6,1.6,1.9,2.1c0.9,0.3,1.2,0.7,1.2,1.3c0,0.6-0.5,1.1-1.3,1.1
		c-0.5,0-1.1-0.2-1.5-0.4l-0.1-0.1l-0.3,1L7.2,79c0.6,0.3,1.2,0.5,1.8,0.5c1.9,0,2.6-1.1,2.6-2.1S11.1,75.7,9.7,75.2z"/>
	<path class="st13" d="M14.9,75.2c-1-0.4-1.3-0.7-1.3-1.2s0.6-0.9,1.2-0.9c0.4,0,0.9,0.1,1.3,0.3l0.1,0.1l0.3-0.9l-0.1-0.1
		c-0.5-0.2-1-0.4-1.6-0.3c-1.4,0-2.3,0.9-2.3,2c0,0.9,0.6,1.6,1.9,2.1c0.9,0.3,1.2,0.7,1.2,1.3c0,0.6-0.5,1.1-1.3,1.1
		c-0.5,0-1.1-0.2-1.5-0.4l-0.1-0.1l-0.3,1l0.1,0.1c0.6,0.3,1.2,0.5,1.8,0.5c1.9,0,2.6-1.1,2.6-2.1S16.2,75.7,14.9,75.2z"/>
	<rect x="17.8" y="72.2" class="st13" width="1.1" height="7.1"/>
	<path class="st13" d="M22.6,75.2c-1-0.4-1.3-0.7-1.3-1.2s0.6-0.9,1.2-0.9c0.4,0,0.9,0.1,1.3,0.3l0.1,0.1l0.3-0.9l-0.1-0.1
		c-0.5-0.2-1-0.4-1.6-0.3c-1.4,0-2.3,0.9-2.3,2c0,0.9,0.6,1.6,1.9,2.1c0.9,0.3,1.2,0.7,1.2,1.3c0,0.6-0.5,1.1-1.3,1.1
		c-0.5,0-1.1-0.2-1.5-0.4l-0.1-0.1l-0.3,1l0.1,0.1c0.6,0.3,1.2,0.5,1.8,0.5c1.9,0,2.6-1.1,2.6-2.1S23.9,75.7,22.6,75.2z"/>
	<polygon class="st13" points="24.7,73.2 26.8,73.2 26.8,79.3 27.9,79.3 27.9,73.2 30,73.2 30,72.2 24.7,72.2 	"/>
	<polygon class="st13" points="31.8,76.1 34.5,76.1 34.5,75.1 31.8,75.1 31.8,73.2 34.6,73.2 34.6,72.2 30.7,72.2 30.7,79.3 
		34.8,79.3 34.8,78.4 31.8,78.4 	"/>
	<path class="st13" d="M40.2,75.2c0,0.9,0,1.5,0.1,2.3c-0.3-0.6-0.6-1.2-1-1.8L37,72.2h-1.1v7.1h1.1v-3.1c0-0.9,0-1.7-0.1-2.4
		c0.3,0.5,0.6,1.1,1.1,1.9l2.2,3.5h1.1v-7.1h-1.1V75.2z"/>
	<path class="st13" d="M46,73.1c0.5,0,0.9,0.1,1.3,0.3l0.1,0.1l0.3-1h-0.1c-0.5-0.2-1.1-0.3-1.7-0.3c-2-0.1-3.6,1.4-3.7,3.4
		c0,0.1,0,0.2,0,0.4c-0.1,1.8,1.2,3.4,3.1,3.6c0.2,0,0.3,0,0.5,0c0.6,0,1.3-0.1,1.9-0.3h0.1l-0.2-0.9l-0.1,0.1
		c-0.4,0.2-0.9,0.3-1.4,0.3c-1.3,0.1-2.5-0.9-2.6-2.2c0-0.1,0-0.3,0-0.4c0-0.7,0.2-1.5,0.7-2C44.6,73.4,45.3,73.1,46,73.1z"/>
	<rect x="48.7" y="72.2" class="st13" width="1.1" height="7.1"/>
	<path class="st13" d="M53.1,72.2l-2.4,7.1h1.2l0.7-2.2h2.3l0.7,2.2h1.2l-2.4-7.1H53.1z M53.9,74.4l0.6,1.8h-1.8l0.6-1.8
		c0.1-0.3,0.2-0.5,0.2-0.9C53.8,73.8,53.8,74.1,53.9,74.4z"/>
	<path class="st13" d="M65.2,72.2l-1.3,3.4c-0.3,0.8-0.5,1.4-0.6,2c-0.1-0.6-0.3-1.2-0.6-2l-1.2-3.4h-1.3l-0.5,7.1h1.1l0.2-3.1
		c0-0.8,0.1-1.6,0.1-2.3c0.2,0.6,0.3,1.2,0.6,2l1.1,3.4h0.9l1.3-3.4c0.3-0.7,0.5-1.4,0.7-2c0,0.7,0.1,1.6,0.1,2.3l0.2,3.1H67
		l-0.4-7.1L65.2,72.2z"/>
	<polygon class="st13" points="69.3,76.1 72,76.1 72,75.1 69.3,75.1 69.3,73.2 72.2,73.2 72.2,72.2 68.2,72.2 68.2,79.3 72.3,79.3 
		72.3,78.4 69.3,78.4 	"/>
	<path class="st13" d="M78.2,73.1c-0.8-0.6-1.8-0.9-2.9-0.9c-0.6,0-1.3,0.1-1.9,0.1h-0.1v7h0.1c0.5,0.1,1.1,0.1,1.6,0.1
		c1.1,0.1,2.3-0.3,3.1-1c0.7-0.7,1.1-1.7,1-2.8C79.3,74.7,78.9,73.7,78.2,73.1z M75.3,78.5c-0.2,0-0.5,0-0.8,0v-5.3
		c0.3,0,0.6-0.1,0.9-0.1c0.7-0.1,1.5,0.2,2,0.7c0.5,0.5,0.7,1.2,0.6,1.8c0.2,1.4-0.9,2.7-2.3,2.8C75.6,78.5,75.4,78.5,75.3,78.5
		L75.3,78.5z"/>
	<rect x="80.3" y="72.2" class="st13" width="1.1" height="7.1"/>
	<path class="st13" d="M86.1,73.1c0.5,0,0.9,0.1,1.3,0.3l0.1,0.1l0.3-1h-0.1c-0.5-0.2-1.1-0.3-1.7-0.3c-2-0.1-3.6,1.4-3.7,3.4
		c0,0.1,0,0.2,0,0.4c-0.1,1.8,1.3,3.4,3.1,3.6c0.1,0,0.3,0,0.4,0c0.6,0,1.3-0.1,1.9-0.3h0.1l-0.2-0.9l-0.1,0.1
		c-0.4,0.2-0.9,0.3-1.4,0.3c-1.3,0.1-2.5-0.9-2.6-2.2c0-0.1,0-0.3,0-0.4c0-0.7,0.2-1.5,0.7-2C84.7,73.3,85.4,73.1,86.1,73.1z"/>
	<path class="st13" d="M90.7,72.2l-2.4,7.1h1.2l0.7-2.2h2.3l0.7,2.2h1.2L92,72.2L90.7,72.2z M91.6,74.4l0.6,1.8h-1.8l0.6-1.8
		c0.1-0.3,0.2-0.5,0.2-0.9C91.4,73.8,91.5,74.1,91.6,74.4z"/>
	<path class="st13" d="M95.7,77.9c-0.4,0-0.8,0.3-0.8,0.7c0,0.4,0.3,0.8,0.7,0.8c0.4,0,0.8-0.3,0.8-0.7c0,0,0,0,0,0
		C96.5,78.3,96.2,78,95.7,77.9C95.8,77.9,95.7,77.9,95.7,77.9z"/>
	<polygon class="st13" points="32.6,71.6 33.3,72 34.3,72 33,71 32.3,71 31,72 32,72 	"/>
	<polygon class="st13" points="72,71 70.6,71 69.4,72 70.5,72 	"/>
	<path class="st14" d="M104.7,75.2c-1-0.4-1.3-0.7-1.3-1.2s0.6-0.9,1.2-0.9c0.4,0,0.9,0.1,1.3,0.3l0.1,0.1l0.3-0.9l-0.1-0.1
		c-0.5-0.2-1-0.4-1.6-0.3c-1.4,0-2.3,0.9-2.3,2c0,0.9,0.6,1.6,1.9,2.1c0.9,0.3,1.2,0.7,1.2,1.3c0,0.6-0.5,1.1-1.3,1.1
		c-0.5,0-1.1-0.2-1.5-0.4l-0.1-0.1l-0.3,1l0.1,0.1c0.6,0.3,1.2,0.5,1.8,0.5c1.9,0,2.6-1.1,2.6-2.1S106,75.7,104.7,75.2z"/>
	<path class="st14" d="M111.8,76.4c0,1.4-0.5,2.1-1.6,2.1c-1,0-1.5-0.7-1.5-2.1v-4.2h-1.1v4.2c0,2,0.9,3.1,2.6,3.1
		c0.7,0,1.4-0.2,1.9-0.7c0.6-0.7,0.8-1.5,0.8-2.4v-4.1h-1.1L111.8,76.4z"/>
	<path class="st14" d="M117.1,72.2h-1.2l-2.4,7.1h1.2l0.7-2.2h2.3l0.7,2.2h1.2L117.1,72.2L117.1,72.2z M116.7,74.4l0.6,1.8h-1.8
		l0.6-1.8c0.1-0.3,0.2-0.5,0.2-0.9C116.5,73.8,116.6,74.1,116.7,74.4z"/>
	<path class="st14" d="M124.9,75.2c-1-0.4-1.3-0.7-1.3-1.2s0.6-0.9,1.2-0.9c0.4,0,0.9,0.1,1.3,0.3l0.1,0.1l0.3-0.9l-0.1-0.1
		c-0.5-0.2-1-0.4-1.6-0.3c-1.4,0-2.3,0.9-2.3,2c0,0.9,0.6,1.6,1.9,2.1c0.9,0.3,1.2,0.7,1.2,1.3c0,0.6-0.5,1.1-1.3,1.1
		c-0.5,0-1.1-0.2-1.5-0.4l-0.1-0.1l-0.3,1l0.1,0.1c0.6,0.3,1.2,0.5,1.8,0.5c1.9,0,2.6-1.1,2.6-2.1S126.2,75.7,124.9,75.2z"/>
	<path class="st14" d="M129.7,72.2l-2.4,7.1h1.2l0.7-2.2h2.3l0.7,2.2h1.2l-2.4-7.1H129.7z M130.5,74.4l0.6,1.8h-1.8l0.6-1.8
		c0.1-0.3,0.2-0.5,0.2-0.9C130.3,73.8,130.4,74.1,130.5,74.4z"/>
	<polygon class="st14" points="138.4,71 136.9,71 135.8,72 136.8,72 	"/>
	<path class="st14" d="M138.1,76.4c0,1.4-0.5,2.1-1.6,2.1s-1.5-0.7-1.5-2.1v-4.2h-1.1v4.2c0,2,0.9,3.1,2.6,3.1
		c0.7,0,1.4-0.2,1.9-0.7c0.6-0.7,0.8-1.5,0.8-2.4v-4.1H138L138.1,76.4z"/>
	<path class="st14" d="M145.5,73.1c-0.8-0.6-1.8-0.9-2.9-0.9c-0.6,0-1.3,0.1-1.9,0.1h-0.1v7h0.1c0.5,0.1,1.1,0.1,1.6,0.1
		c1.1,0.1,2.3-0.3,3.1-1c0.7-0.7,1.1-1.7,1-2.8C146.5,74.7,146.2,73.7,145.5,73.1z M142.5,78.5c-0.2,0-0.5,0-0.8,0v-5.3
		c0.3,0,0.6-0.1,0.9-0.1c0.7-0.1,1.5,0.2,2,0.7c0.5,0.5,0.7,1.2,0.6,1.8c0.1,1.4-0.9,2.7-2.3,2.8C142.9,78.5,142.7,78.5,142.5,78.5z
		"/>
	<polygon class="st14" points="148.6,76.1 151.3,76.1 151.3,75.1 148.6,75.1 148.6,73.2 151.5,73.2 151.5,72.2 147.5,72.2 
		147.5,79.3 151.6,79.3 151.6,78.4 148.6,78.4 	"/>
	<polygon class="st14" points="158.7,71 157.3,71 156.2,72 157.2,72 	"/>
	<polygon class="st14" points="156,76.1 158.7,76.1 158.7,75.1 156,75.1 156,73.2 158.9,73.2 158.9,72.2 154.9,72.2 154.9,79.3 
		159,79.3 159,78.4 156,78.4 	"/>
	<polygon class="st14" points="166.8,71 165.4,71 164.2,72 165.2,72 	"/>
	<path class="st14" d="M166.5,76.4c0,1.4-0.5,2.1-1.6,2.1c-1,0-1.5-0.7-1.5-2.1v-4.2h-1.1v4.2c0,2,0.9,3.1,2.6,3.1
		c0.7,0,1.4-0.2,1.9-0.7c0.6-0.7,0.8-1.5,0.8-2.4v-4.1h-1.1L166.5,76.4z"/>
	<path class="st14" d="M173.4,75.2c0,0.9,0,1.5,0.1,2.3c-0.3-0.6-0.6-1.2-1-1.8l-2.2-3.5h-1.1v7.1h1v-3.1c0-0.9,0-1.7,0-2.4
		c0.3,0.5,0.6,1.1,1.1,1.9l2.2,3.5h1.1v-7.1h-1.1L173.4,75.2z"/>
	<rect x="175.9" y="72.2" class="st14" width="1.1" height="7.1"/>
	<path class="st14" d="M181.8,73.1c0.5,0,0.9,0.1,1.3,0.3l0.1,0.1l0.3-1h-0.1c-0.5-0.2-1.1-0.3-1.7-0.3c-1.9-0.1-3.6,1.4-3.7,3.3
		c0,0.1,0,0.3,0,0.4c-0.1,1.8,1.2,3.4,3.1,3.6c0.2,0,0.3,0,0.5,0c0.6,0,1.3-0.1,1.9-0.3h0.1l-0.2-0.9l-0.1,0.1
		c-0.4,0.2-0.9,0.3-1.4,0.3c-1.3,0.1-2.5-0.9-2.6-2.2c0-0.2,0-0.3,0-0.5c0-0.7,0.2-1.5,0.7-2C180.4,73.4,181.1,73.1,181.8,73.1z"/>
	<path class="st14" d="M186.4,72.2l-2.4,7.1h1.2l0.7-2.2h2.3l0.7,2.2h1.2l-2.4-7.1H186.4z M187.2,74.4l0.6,1.8h-1.7l0.6-1.8
		c0.1-0.3,0.2-0.5,0.2-0.9C187,73.8,187.1,74.1,187.2,74.4L187.2,74.4z"/>
	<path class="st14" d="M191.4,77.9c-0.4,0-0.7,0.3-0.7,0.7c0,0,0,0,0,0.1c0,0.4,0.4,0.7,0.8,0.7c0.4,0,0.7-0.4,0.7-0.8
		C192,78.2,191.7,77.9,191.4,77.9z"/>
</g>
</svg>
