<svg class="mapa-svg" viewBox="0 0 1120 700" xmlns="http://www.w3.org/2000/svg" role="img" aria-label="Mapa do entorno do escritorio, no Parque Ortolandia, em Hortolandia - SP">
<defs>
<linearGradient id="gradArco" x1="0" y1="0" x2="1" y2="0">
  <stop offset="0%" stop-color="#FF459D"/><stop offset="35%" stop-color="#FF8636"/>
  <stop offset="60%" stop-color="#FFB11A"/><stop offset="100%" stop-color="#0996F5"/>
</linearGradient>
<radialGradient id="mfade" cx="50%" cy="50%" r="62%">
  <stop offset="55%" stop-color="#fff" stop-opacity="1"/>
  <stop offset="100%" stop-color="#fff" stop-opacity="0"/>
</radialGradient>
<mask id="mmask"><rect width="1120" height="700" fill="url(#mfade)"/></mask>
</defs>
<g mask="url(#mmask)">
<polygon class="m-green" points="502.1,-793.1 505.0,-799.1 511.3,-804.7 527.9,-818.6 545.2,-831.8 549.2,-834.4 562.8,-842.5 572.0,-846.1 581.5,-848.1 587.5,-848.9 594.4,-847.6 601.3,-845.7 597.4,-829.5 590.5,-795.5 605.7,-790.7 620.1,-745.9 650.6,-630.8 683.0,-635.1 705.3,-636.6 710.6,-632.2 708.7,-597.8 703.5,-568.1 691.2,-532.0 684.8,-520.0 748.5,-411.5 752.5,-396.8 755.3,-379.7 757.9,-368.9 765.9,-357.4 770.7,-341.6 774.8,-332.5 779.3,-324.0 813.7,-241.8 822.1,-215.7 827.1,-201.0 831.8,-186.3 832.5,-112.3 836.4,-99.9 839.2,-93.1 843.4,-72.1 843.4,-59.6 845.2,-22.7 845.8,-9.7 845.6,4.3 845.3,7.4 842.9,8.9 839.2,9.6 803.7,-5.5 757.5,-25.0 757.2,-31.1 756.9,-34.7 759.3,-41.6 741.1,-93.5 721.9,-148.3 709.4,-183.2 696.5,-217.1 676.5,-267.4 669.3,-294.1 663.9,-309.3 658.7,-324.5 648.0,-355.0 636.4,-385.8 627.3,-411.0 615.8,-440.8 604.9,-471.1 585.6,-531.2 584.6,-535.3 580.6,-550.2 573.0,-574.3 559.4,-616.8 545.8,-658.4 538.9,-679.5 532.5,-700.1 502.1,-793.1"/>
<polygon class="m-green" points="344.0,492.3 347.3,492.7 432.2,561.3 434.0,564.9 433.0,569.7 370.5,653.0 273.4,579.1 341.1,493.8 344.0,492.3"/>
<polygon class="m-green" points="802.5,22.1 853.6,42.1 865.1,83.2 879.1,186.4 888.7,250.1 898.5,286.1 929.3,329.3 957.0,368.0 1061.5,488.2 1174.5,617.1 1177.2,625.1 1231.1,689.2 1258.4,737.7 1360.4,1022.2 1358.8,1029.7 1355.9,1033.1 1351.3,1034.5 1268.8,1059.0 1209.6,973.2 1187.2,949.0 1149.1,881.1 1142.1,787.7 1134.1,747.7 1111.1,699.3 1072.7,650.8 996.9,494.1 952.6,474.6 916.1,466.4 892.7,454.4 865.5,361.2 831.8,310.3 828.5,256.3 818.3,208.3 816.1,160.8 789.9,104.8 802.5,22.1"/>
<polyline class="m-water" points="803.7,-5.5 809.5,-18.9 812.1,-25.2 809.6,-38.2 807.6,-50.6 803.3,-70.7 801.1,-94.1 794.5,-110.8 794.9,-142.4 794.5,-157.0 792.2,-180.9 790.7,-202.8 777.5,-232.6 763.7,-261.0 739.1,-315.7 729.6,-336.9 709.1,-389.3 698.6,-409.7 688.6,-434.8 684.9,-456.3 671.7,-481.2 658.6,-496.2 645.3,-520.1 636.0,-552.2 618.9,-579.8 618.4,-601.7 586.1,-709.5 575.5,-739.5 574.4,-755.4 562.7,-797.9 562.5,-813.6 557.4,-826.9 551.0,-844.4 546.4,-857.3 516.7,-913.4 465.9,-957.3 429.2,-985.3"/>
<polyline class="m-water" points="1300.7,1132.3 1290.9,1109.6 1272.2,1066.7 1268.8,1059.0 1242.4,1021.6 1235.7,1012.3 1213.8,982.0 1205.5,973.1 1185.2,951.2 1149.1,881.1 1147.8,878.6 1143.4,843.4 1141.1,818.6 1139.0,794.9 1130.2,746.5 1125.8,737.2 1110.4,704.7 1070.8,656.3 1024.5,557.3 993.7,495.6 951.9,478.0 913.4,470.9 889.2,455.5 862.8,363.0 827.6,311.3 825.4,259.6 814.4,212.3 813.3,187.0 812.2,161.6 785.7,104.4 794.9,29.1 797.5,19.1 803.7,-5.5"/>
<polyline class="m-r4" points="81.3,816.0 78.9,814.6 76.3,814.1 74.2,813.6 68.4,808.4 31.2,770.8 -18.5,721.5 -21.7,719.0 -59.4,682.6 -62.8,679.6 -65.7,677.6 -70.4,676.6"/>
<polyline class="m-r4" points="-78.6,694.4 -67.0,695.9 -58.3,699.7 -49.9,705.4 -41.7,712.6 -27.5,723.9 -24.1,727.6 -14.7,737.2 25.7,776.7 67.3,818.0 69.6,820.5 70.2,828.5"/>
<polyline class="m-r4" points="31.2,770.8 43.1,758.1 47.8,752.8 49.8,747.7 50.5,745.3 50.5,743.3 49.1,740.9 6.0,700.7 -1.7,692.6 -48.2,646.9 -49.6,646.5 -51.2,646.4 -52.7,647.2 -61.7,656.2 -75.5,670.7"/>
<polyline class="m-r4" points="-1.7,692.6 -8.9,700.3 -9.7,701.4 -10.3,702.5 -10.7,703.7 -10.9,706.9 -21.7,719.0"/>
<polyline class="m-r4" points="-61.7,656.2 -10.9,706.9 -7.3,710.0 43.1,758.1"/>
<polyline class="m-r4" points="-18.5,721.5 -7.3,710.0 -4.1,709.8 -1.9,709.1 -0.1,707.8 2.2,705.5 6.0,700.7"/>
<polyline class="m-r4" points="-14.7,737.2 -16.5,742.6 -16.1,744.6 -15.1,746.7 14.3,775.2 55.0,814.7 56.6,816.4 62.6,822.2 63.8,821.0 67.3,818.0"/>
<polyline class="m-r4" points="575.1,-568.5 602.7,-482.9 607.8,-467.9 629.0,-410.0 685.1,-265.6 707.9,-200.6 729.5,-136.5 753.1,-69.6 763.5,-42.7 761.1,-34.8 760.7,-33.5 760.0,-30.1 761.0,-26.5 796.4,-11.5"/>
<polyline class="m-r4" points="342.8,496.0 344.4,494.8 346.3,495.3 365.0,510.3 396.5,535.6 430.4,562.8 431.3,565.3 431.1,567.8 416.4,587.8 370.3,649.3 299.6,594.7 277.9,578.0 293.9,557.8 327.0,516.0 342.8,496.0"/>
<polyline class="m-r4" points="327.0,516.0 348.0,532.8 379.2,557.9 416.4,587.8"/>
<polyline class="m-r4" points="365.0,510.3 348.0,532.8"/>
<polyline class="m-r4" points="396.5,535.6 379.2,557.9"/>
<polyline class="m-r4" points="348.0,532.8 315.5,574.4 299.6,594.7"/>
<polyline class="m-r4" points="293.9,557.8 315.5,574.4"/>
<polyline class="m-r4" points="-50.7,618.9 -56.6,624.3"/>
<polyline class="m-r4" points="-24.1,727.6 -18.5,721.5"/>
<polyline class="m-r4" points="-21.7,719.0 -27.5,723.9"/>
<polyline class="m-r4" points="282.3,653.3 300.4,632.8 302.5,631.1 305.4,630.4 308.3,631.1 310.7,632.7"/>
<polyline class="m-r4" points="270.4,664.3 282.3,653.3"/>
<polyline class="m-r4" points="310.7,632.7 341.6,657.1 342.5,658.2 342.8,659.6 342.6,660.8 328.5,678.3 325.7,680.7 323.8,681.2 321.6,681.1 320.0,680.6 282.3,653.3"/>
<polyline class="m-r4" points="939.6,40.1 939.1,40.1 942.5,-0.3 943.3,-3.1 945.5,-3.6 955.0,-1.4"/>
<polyline class="m-r4" points="962.5,-13.5 955.0,-1.4 947.8,19.7 939.9,39.9 939.6,40.1"/>
<polyline class="m-r4" points="1024.0,13.0 1026.6,-21.0 1030.2,-66.1 1029.7,-68.0 1028.5,-69.1 1014.5,-69.9"/>
<polyline class="m-r4" points="1014.5,-69.9 1010.9,-7.4"/>
<polyline class="m-r4" points="999.8,-70.1 997.6,-14.1"/>
<polyline class="m-r4" points="1014.5,-69.9 999.8,-70.1 986.3,-70.7 985.4,-70.4 985.3,-69.5 983.9,-28.3 982.4,-21.9 980.2,-17.2 974.2,-7.9"/>
<polyline class="m-r4" points="918.8,-12.0 868.1,-15.2 867.5,-15.0"/>
<polyline class="m-r4" points="882.6,-1.6 882.9,7.2 884.2,9.3 886.2,10.5 904.0,12.7"/>
<polyline class="m-r4" points="867.5,-15.0 867.3,-14.3 869.5,-5.7 870.9,-2.6 872.8,-1.8 882.6,-1.6 903.6,0.2"/>
<polyline class="m-r4" points="840.8,732.9 924.1,677.6 955.8,655.9"/>
<polyline class="m-r4" points="473.7,588.3 469.4,593.6 467.0,597.1 467.4,600.4 468.4,603.2 531.9,656.8 543.5,666.9"/>
<polyline class="m-r4" points="300.4,632.8 287.2,618.9"/>
<polyline class="m-r4" points="163.4,-24.4 152.9,-28.1 136.9,-35.6 105.1,-44.1 100.6,-43.3 97.8,-40.7 95.6,-33.7 95.7,-30.5 96.2,-28.9 97.3,-27.5 121.4,-18.1 156.3,-4.5"/>
<polyline class="m-r4" points="871.2,67.0 880.9,68.7 883.4,68.1 894.8,59.5 899.6,55.9"/>
<polyline class="m-r4" points="-55.8,480.3 -44.1,484.7"/>
<polyline class="m-r4" points="796.4,-11.5 810.9,-5.3"/>
<polyline class="m-r4" points="810.9,-5.3 837.6,6.0 840.4,6.2 841.7,5.7 842.7,4.8 843.5,3.2"/>
<polyline class="m-r4" points="841.7,5.7 843.0,7.3"/>
<polyline class="m-r4" points="843.0,7.3 847.2,9.4 852.8,11.4"/>
<polyline class="m-r4" points="969.9,-10.0 951.0,39.5 952.6,45.2 990.0,61.3"/>
<polyline class="m-r4" points="152.9,-28.1 141.4,-30.4 135.7,-32.7 130.0,-34.7 127.9,-35.0 124.8,-34.2 123.5,-31.7 121.8,-27.6 120.9,-24.8 120.8,-23.0 121.4,-18.1"/>
<polyline class="m-r4" points="-56.6,624.3 -79.4,645.5"/>
<polyline class="m-r3" points="931.8,-26.2 962.5,-13.5 969.9,-10.0 974.2,-7.9 1024.0,13.0 1099.8,44.8"/>
<polyline class="m-r3" points="957.9,-620.1 946.9,-514.0 946.4,-507.7 944.9,-478.0 943.8,-458.3 937.3,-372.1 919.5,-26.5 918.8,-12.0 916.1,38.0 915.9,47.1"/>
<polyline class="m-r3" points="372.5,-164.1 370.7,-159.8 336.0,-79.1 330.5,-65.9 323.2,-53.5 241.4,52.3"/>
<polyline class="m-r3" points="175.3,10.6 179.1,11.4 241.4,52.3 303.1,96.4 396.4,160.6 463.9,207.3 477.9,216.5 491.7,222.8 506.1,227.5 522.3,230.3 535.2,230.5 610.6,223.9"/>
<polyline class="m-r3" points="396.4,160.6 441.9,71.4 463.5,27.7 484.1,-16.1 514.4,-99.1 516.6,-105.1"/>
<polyline class="m-r3" points="664.1,-42.6 662.9,-36.7 653.8,6.2"/>
<polyline class="m-r3" points="1117.1,-29.7 1294.6,47.4 1482.7,125.8 1509.9,137.5 1589.6,171.6 1603.6,178.4 1614.6,188.4"/>
<polyline class="m-r3" points="491.7,222.8 524.8,126.6 568.8,-3.4"/>
<polyline class="m-r3" points="344.4,485.7 451.2,569.7 473.7,588.3 546.9,646.3 554.8,652.6 659.5,735.0"/>
<polyline class="m-r3" points="686.6,704.6 673.1,718.7 659.5,735.0 602.2,808.6 543.9,883.9 488.5,955.1 402.7,1056.7"/>
<polyline class="m-r3" points="609.2,580.8 554.8,652.6 543.5,666.9 498.3,725.5 441.3,798.9 382.4,871.2 307.0,967.0"/>
<polyline class="m-r3" points="498.3,725.5 602.2,808.6 707.8,892.3"/>
<polyline class="m-r3" points="592.5,1038.0 488.5,955.1 382.4,871.2 276.9,789.7 173.3,706.0"/>
<polyline class="m-r3" points="441.3,798.9 336.3,715.5 270.4,664.3 227.8,632.7"/>
<polyline class="m-r3" points="532.0,463.2 451.2,569.7 336.3,715.5 276.9,789.7 214.7,876.1"/>
<polyline class="m-r3" points="776.3,827.1 786.6,829.9 797.9,831.8 810.9,832.5 821.5,830.6 830.7,826.6 848.5,812.7 855.3,797.9 858.1,785.4 858.9,770.8 854.4,755.7 848.1,744.9 840.8,732.9 831.6,717.4 809.7,684.0 786.8,652.6 780.1,648.8 772.9,648.8"/>
<polyline class="m-r3" points="742.4,668.9 675.1,558.4 662.6,534.0 653.2,509.3 638.2,460.6 630.7,429.3 629.4,423.8 619.4,405.1 612.4,385.2 604.9,346.8"/>
<polyline class="m-r3" points="532.0,463.2 552.9,448.3 574.3,437.1 602.1,427.8 629.4,423.8"/>
<polyline class="m-r3" points="305.7,246.7 146.3,447.6 64.7,551.9 -14.0,653.9"/>
<polyline class="m-r3" points="380.5,297.4 216.4,503.5"/>
<polyline class="m-r3" points="287.1,557.6 216.4,503.5 146.3,447.6 74.6,390.7"/>
<polyline class="m-r3" points="615.7,124.0 524.8,126.6"/>
<polyline class="m-r3" points="723.8,-2.5 711.6,-2.4 653.8,6.2 568.8,-3.4 484.1,-16.1 400.4,-32.1 323.2,-53.5 216.8,-90.1 213.7,-91.3"/>
<polyline class="m-r3" points="1084.4,504.4 1141.7,527.7 1289.3,587.7 1363.4,620.7 1393.1,633.9"/>
<polyline class="m-r3" points="1563.0,419.9 1392.4,347.2 1204.8,267.3 1072.4,212.5"/>
<polyline class="m-r3" points="1043.7,276.7 1177.5,333.1 1364.8,411.9 1536.3,484.4"/>
<polyline class="m-r3" points="1474.1,602.0 1456.6,590.5 1436.0,580.2 1395.2,563.2 1314.2,529.0 1126.5,451.0 1045.3,418.2 995.8,395.9"/>
<polyline class="m-r3" points="1126.5,451.0 1153.5,393.2"/>
<polyline class="m-r3" points="993.3,400.3 995.8,395.9 1020.5,337.0 1043.7,276.7 1072.4,212.5"/>
<polyline class="m-r3" points="929.3,329.3 944.2,297.3 991.1,209.8 991.1,200.9 984.0,191.3 948.8,177.2 940.5,177.2 931.6,183.6 915.0,214.3"/>
<polyline class="m-r3" points="-14.6,405.6 -10.4,408.0 37.4,441.4"/>
<polyline class="m-r3" points="-34.2,57.8 -113.3,251.1"/>
<polyline class="m-r3" points="18.4,90.2 17.8,92.7 10.8,113.0 -52.5,264.3 -57.9,269.1 -60.8,270.4 -63.0,270.6 -65.0,270.5"/>
<polyline class="m-r3" points="18.4,90.2 16.9,83.0 12.7,78.6 8.7,76.2 4.7,74.7 -34.2,57.8 -95.8,32.8 -148.8,10.0 -206.4,-14.0 -263.6,-37.9 -297.2,-51.3 -330.9,-64.7 -382.2,-86.4 -416.9,-101.8 -451.6,-117.1 -503.1,-138.2 -507.1,-137.7 -511.7,-135.8"/>
<polyline class="m-r3" points="928.2,52.6 928.5,43.5 931.8,-26.2 932.3,-95.3 935.2,-122.3 939.9,-208.8 940.6,-218.2 947.5,-357.4 951.0,-379.3 957.0,-506.4 959.7,-530.9 969.3,-618.1"/>
<polyline class="m-r3" points="1340.6,472.8 1242.5,431.1 1153.5,393.2"/>
<polyline class="m-r3" points="1153.5,393.2 1177.5,333.1 1204.8,267.3"/>
<polyline class="m-r3" points="1153.5,393.2 1020.5,337.0"/>
<polyline class="m-r3" points="696.2,-524.3 697.4,-520.6 701.1,-509.2 707.4,-494.6 736.9,-446.7 753.1,-416.3 758.4,-401.6 765.6,-375.9 769.0,-361.6 817.4,-245.6 833.8,-185.2 834.6,-136.9 835.3,-113.9 840.6,-94.9 845.5,-71.0 850.6,-12.7 851.1,-5.0"/>
<polyline class="m-r3" points="610.2,164.8 610.2,159.0 611.4,146.5 615.7,124.0 632.5,89.7"/>
<polyline class="m-r3" points="452.4,318.0 465.3,294.0 472.3,280.9 491.7,222.8"/>
<polyline class="m-r3" points="925.0,67.0 928.2,52.6"/>
<polyline class="m-r3" points="1027.6,440.1 1028.5,433.3 1030.3,429.3 1035.6,422.5 1039.7,419.1 1045.3,418.2"/>
<polyline class="m-r3" points="991.1,200.9 1003.9,175.1 1006.8,173.3 1010.9,172.9 1032.1,183.2 1034.7,186.0 1034.0,189.7 1025.1,207.5"/>
<polyline class="m-r3" points="915.0,214.3 898.3,225.6"/>
<polyline class="m-r3" points="749.9,-24.6 753.5,-32.0 754.1,-33.2 752.8,-40.9"/>
<polyline class="m-r3" points="772.9,648.8 742.4,668.9 686.6,704.6"/>
<polyline class="m-r3" points="931.8,-26.2 919.5,-26.5"/>
<polyline class="m-r3" points="1561.7,238.9 1454.1,193.7 1267.5,114.0 1099.8,44.8"/>
<polyline class="m-r3" points="46.5,713.8 216.4,503.5"/>
<polyline class="m-r3" points="609.8,267.6 610.6,223.9 608.6,185.3"/>
<polyline class="m-r3" points="1141.7,527.7 1134.3,531.7 1128.0,539.6 1123.7,549.5"/>
<polyline class="m-r3" points="781.3,390.4 630.7,429.3"/>
<polyline class="m-r3" points="453.5,329.7 452.4,318.0"/>
<polyline class="m-r3" points="452.4,318.0 444.0,326.9"/>
<polyline class="m-r3" points="944.2,297.3 932.7,303.9 928.9,305.0 921.9,307.8 915.0,310.6"/>
<polyline class="m-r3" points="851.1,-5.0 848.3,1.1 845.2,5.6 843.7,6.8 843.0,7.3 842.2,7.8 838.1,9.4 830.9,12.2"/>
<polyline class="m-r3" points="860.8,24.7 856.8,19.4 854.9,16.7 853.4,13.8 852.8,11.4 852.6,8.0 851.1,-5.0"/>
<polyline class="m-r3" points="743.3,-27.3 735.5,-13.0"/>
<polyline class="m-r3" points="735.5,-13.0 730.5,-8.7 726.5,-5.8 723.8,-2.5"/>
<polyline class="m-r3" points="752.8,-40.9 754.3,-49.9 733.6,-103.6"/>
<polyline class="m-r3" points="723.8,-2.5 730.6,-1.3 735.3,-3.3 737.5,-5.8 741.6,-10.5"/>
<polyline class="m-r3" points="752.8,-40.9 746.7,-35.1 746.2,-34.0 743.3,-27.3"/>
<polyline class="m-r3" points="1078.0,129.8 1076.7,135.4 1076.2,137.9 1076.0,186.7 1075.5,200.1 1072.4,212.5"/>
<polyline class="m-r3" points="915.9,47.1 912.9,61.9"/>
<polyline class="m-r3" points="16.4,-94.0 14.2,-88.7 -33.2,27.6"/>
<polyline class="m-r3" points="71.8,-71.0 69.9,-66.5 19.9,51.6"/>
<polyline class="m-r3" points="903.9,235.5 915.0,214.3"/>
<polyline class="m-r3" points="741.6,-10.5 749.9,-24.6"/>
<polyline class="m-r2" points="109.0,774.6 94.6,761.3 46.5,713.8 -14.0,653.9 -50.7,618.9 -67.2,603.6 -71.2,600.6 -76.2,598.6 -81.8,597.6 -90.3,599.6"/>
<polyline class="m-r2" points="198.6,-207.5 204.4,-197.5 208.6,-186.5 211.0,-174.6 211.4,-160.1 209.1,-146.1 199.4,-119.1 186.0,-83.7 164.3,-26.1 163.4,-24.4 161.1,-17.8 156.3,-4.5 122.0,83.1 118.6,91.8"/>
<polyline class="m-r2" points="424.0,325.3 404.8,314.7 380.5,297.4 305.7,246.7 228.3,192.4"/>
<polyline class="m-r2" points="437.8,357.2 428.1,369.8 366.6,455.0 344.4,485.7 287.1,557.6 258.9,593.4 227.8,632.7 173.3,706.0 129.7,756.4"/>
<polyline class="m-r2" points="448.0,343.9 454.5,351.0 457.9,354.0 460.1,355.9 466.7,360.2"/>
<polyline class="m-r2" points="857.8,38.1 859.8,45.0 861.9,52.0 863.9,59.0 867.6,80.5"/>
<polyline class="m-r2" points="2.2,307.5 -6.8,308.7 -13.1,307.6 -18.6,305.6 -24.8,303.2 -34.8,298.8 -411.9,141.9 -419.6,138.5"/>
<polyline class="m-r2" points="-7.1,332.9 -5.7,340.1 -4.8,344.3 -3.8,348.8 -2.6,353.6"/>
<polyline class="m-r2" points="2.2,307.5 -0.9,311.6 -2.7,314.8 -4.5,319.1 -5.7,322.4 -7.1,326.8 -7.1,332.9"/>
<polyline class="m-r2" points="118.6,91.8 99.8,130.7 83.1,167.0 47.9,225.4 38.0,242.9 20.6,275.5 16.7,282.0 7.9,298.0"/>
<polyline class="m-r2" points="-425.1,148.4 -245.1,222.2 -32.6,312.5 -26.0,315.2 -19.8,318.8 -14.4,323.5 -11.1,327.8 -7.1,332.9"/>
<polyline class="m-r2" points="24.3,298.9 18.5,302.3 13.1,304.0 8.3,305.7 2.2,307.5"/>
<polyline class="m-r2" points="867.6,80.5 871.2,67.0 875.2,61.0 877.1,59.7 883.7,54.9 889.0,51.1"/>
<polyline class="m-r2" points="466.7,360.2 465.6,355.7 464.9,353.3 463.7,350.0 462.7,347.6 461.4,345.0 455.1,338.0"/>
<polyline class="m-r2" points="466.7,360.2 469.3,364.2 480.1,379.0 532.0,463.2 579.1,535.0 609.2,580.8 678.0,692.2 686.6,704.6 759.3,813.1 760.7,818.4 761.0,823.7"/>
<polyline class="m-r2" points="119.4,785.2 129.7,756.4"/>
<polyline class="m-r2" points="129.7,756.4 109.0,774.6"/>
<polyline class="m-r2" points="439.3,340.2 437.9,347.7 437.5,351.2 437.8,357.2"/>
<polyline class="m-r2" points="440.0,329.6 424.0,325.3"/>
<polyline class="m-r2" points="424.0,325.3 438.0,335.7"/>
<polyline class="m-r2" points="-82.9,586.8 -49.0,547.4 -43.8,541.4 -30.9,526.3 37.4,441.4"/>
<polyline class="m-r2" points="37.4,441.4 44.1,432.2 48.8,425.9 74.6,390.7 178.2,256.7 184.6,248.4 228.3,192.4 303.1,96.4 353.7,31.9 364.0,18.8 385.2,-8.4 391.4,-17.8 396.8,-24.6 400.4,-32.1 440.4,-130.4 442.8,-136.2"/>
<polyline class="m-r2" points="130.5,123.8 133.4,126.2 228.3,192.4"/>
<polyline class="m-r2" points="437.8,357.2 442.2,352.8 444.4,349.1 446.3,344.2"/>
<polyline class="m-r2" points="444.0,326.9 440.0,329.6 438.4,332.5 438.0,335.7 439.3,340.2 441.7,342.4 446.3,344.2 448.0,343.9 452.4,342.0 455.1,338.0 455.4,333.6 453.5,329.7 449.2,326.8 444.0,326.9"/>
<polyline class="m-r2" points="7.9,298.0 2.2,307.5"/>
<polyline class="m-r2" points="893.0,263.0 899.1,282.3 906.1,296.9 915.0,310.6 923.7,321.1 929.3,329.3 961.1,364.1 979.4,384.6 993.3,400.3 1015.9,426.4 1027.6,440.1 1068.3,485.7 1084.4,504.4 1123.7,549.5 1149.8,579.6 1173.1,606.4 1184.3,619.5 1210.0,651.1 1230.0,680.8 1234.8,688.0 1249.5,714.2 1261.0,734.2 1273.8,764.0 1288.9,799.3"/>
<polyline class="m-r2" points="889.6,227.0 887.6,229.4"/>
<polyline class="m-r2" points="893.0,263.0 896.7,247.8 898.1,242.2"/>
<polyline class="m-r2" points="887.5,238.2 893.0,263.0"/>
<polyline class="m-r2" points="887.6,229.4 886.5,232.2 886.5,235.3 887.5,238.2 889.5,240.6 892.1,242.1 895.1,242.7 898.1,242.2 900.8,240.7 902.8,238.4 903.9,235.5 903.9,232.4 902.9,229.5 900.9,227.2 898.3,225.6 895.3,225.0 892.3,225.5 889.6,227.0"/>
<polyline class="m-r2" points="867.6,80.5 868.2,90.0 873.5,131.2 883.3,207.6 885.3,216.7 887.5,222.4 889.6,227.0"/>
<polyline class="m-r2" points="-7.1,332.9 -36.3,396.7 -85.2,512.5 -97.6,545.3 -104.8,561.8 -113.3,574.4 -131.5,583.0 -154.5,585.1"/>
<polyline class="m-r2" points="118.6,91.8 119.7,100.1 119.1,104.3 119.0,105.7 119.7,108.1 120.8,109.7 124.0,114.7 130.5,123.8"/>
<polyline class="m-r1" points="-48.6,499.4 -44.1,484.7 -37.4,463.1 -24.7,427.5 -14.6,405.6 22.2,321.7 34.7,298.3 112.5,159.2 130.5,123.8 141.6,97.2 148.1,79.9 155.0,62.9 175.3,10.6"/>
<polyline class="m-r1" points="290.1,-393.1 284.8,-385.3 277.9,-379.6 271.2,-376.6 263.8,-374.8 255.0,-374.5 246.1,-376.0 235.9,-377.7 226.0,-377.7 217.1,-375.3 210.3,-370.6 205.2,-363.9 202.3,-355.4 191.4,-293.6 186.8,-277.2 180.5,-261.3 179.4,-253.7 179.8,-245.7 193.5,-234.2 199.4,-228.9 207.2,-220.1 214.4,-211.1 221.7,-200.7 224.4,-184.3 225.8,-169.4 225.2,-154.1 222.1,-139.3 216.3,-121.8 185.4,-48.9 172.1,-14.5 167.4,-2.7 164.0,7.3 147.4,51.2 137.0,75.0 120.8,109.7 105.3,145.5 87.8,185.8 24.3,298.9 -2.6,353.6 -19.7,395.9 -42.5,448.7 -55.8,480.3 -60.1,490.7 -61.5,493.9 -77.5,532.5"/>
<polyline class="m-r1" points="1099.8,44.8 1086.8,107.0 1084.8,116.8"/>
<polyline class="m-r1" points="1084.8,116.8 1070.7,110.9 955.6,64.4 928.2,52.6"/>
<polyline class="m-r1" points="175.3,10.6 168.7,11.7 165.8,13.1 164.0,15.6 155.3,39.7 147.4,51.2"/>
<polyline class="m-r1" points="915.9,47.1 906.0,43.1 860.8,24.7 849.8,20.3 830.9,12.2 813.6,4.7"/>
<polyline class="m-r1" points="813.6,4.7 789.6,-5.8"/>
<polyline class="m-r1" points="743.3,-27.3 730.9,-32.2 656.4,-62.0 580.8,-93.9 518.7,-121.3 498.3,-128.2 448.4,-149.5"/>
<polyline class="m-r1" points="784.5,8.1 810.6,19.6"/>
<polyline class="m-r1" points="810.6,19.6 857.8,38.1 889.0,51.1 899.6,55.9 903.6,57.8 905.0,58.4 912.9,61.9 917.5,63.8"/>
<polyline class="m-r1" points="216.3,-121.8 208.2,-111.4 202.9,-103.7 198.7,-95.7 191.9,-78.7 179.5,-52.5 164.3,-26.1"/>
<polyline class="m-r1" points="1099.8,44.8 1117.1,-29.7 1124.3,-61.1 1130.1,-92.3 1130.5,-157.9 1131.8,-233.7 1133.6,-306.9 1135.2,-382.9 1133.9,-454.8 1135.1,-513.0"/>
<polyline class="m-r1" points="925.0,67.0 995.7,95.8 1065.3,125.0 1078.0,129.8 1233.8,196.2"/>
<polyline class="m-r1" points="789.6,-5.8 749.9,-24.6"/>
<polyline class="m-r1" points="1239.5,181.4 1084.8,116.8"/>
<polyline class="m-r1" points="1084.8,116.8 1078.0,129.8"/>
<polyline class="m-r1" points="917.5,63.8 925.0,67.0"/>
<polyline class="m-r1" points="928.2,52.6 915.9,47.1"/>
<polyline class="m-r1" points="175.3,10.6 185.0,-15.2 213.7,-91.3 253.6,-197.7"/>
<polyline class="m-r1" points="-90.3,599.6 -82.9,586.8 -76.3,570.9 -69.6,550.9 -61.8,530.2 -48.6,499.4"/>
<polyline class="m-r1" points="137.0,75.0 137.5,82.0 124.0,114.7"/>
<polyline class="m-r1" points="664.1,-42.6 724.9,-17.4 735.5,-13.0 741.6,-10.5"/>
<polyline class="m-r1" points="749.9,-24.6 743.3,-27.3"/>
<polyline class="m-r1" points="741.6,-10.5 784.5,8.1"/>
<polyline class="m-r1" points="442.8,-136.2 504.0,-110.2 516.6,-105.1 664.1,-42.6"/>

<polyline class="m-alvo" points="465.6,355.7 484.1,355.4 604.9,346.8 654.0,339.9"/>
</g>
<g class="m-pin" transform="translate(560.0,350.0)">
  <circle class="m-halo" r="34"/>
  <circle class="m-halo2" r="19"/>
  <circle class="m-dot" r="7.5"/>
</g>
</svg>